<?xml version="1.0" standalone="no"?>
  <!DOCTYPE svg PUBLIC "-//W3C//DTD SVG 1.1//EN" "http://www.w3.org/Graphics/SVG/1.1/DTD/svg11.dtd" >
  <svg>
  <metadata>
  Created by font-carrier
  </metadata>
  <defs>
  <font id="Fyodor-Bold" horiz-adv-x="790" vert-adv-y="790" >
    <font-face
      
      font-family="Fyodor"
      
      font-weight="400"
      
      font-stretch="normal"
      
      units-per-em="1024"
      
      ascent="953"
      
      descent="-276"
      
    />
      <missing-glyph />

      

      
      <glyph glyph-name="uni21" unicode="&#x21;" d="M137 168L14 168L12 696L138 696L137 168M137 123L137 0L12 0L12 123L137 123Z"  horiz-adv-x="208" vert-adv-y="1024"  />

      
      <glyph glyph-name="uni22" unicode="&#x22;" d="M170 499L91 499L91 539L12 558L12 696L169 696L170 499M301 499L301 539L222 558L222 696L379 696L380 499L301 499Z"  horiz-adv-x="440" vert-adv-y="1024"  />

      
      <glyph glyph-name="uni23" unicode="&#x23;" d="M512 161L469 0L303 0L349 160L247 159L206 0L40 0L84 159L12 159L13 301L124 301L155 411L77 411L75 560L197 560L236 696L389 696L353 560L461 560L500 696L653 696L617 560L691 560L694 413L578 413L549 303L628 303L629 161L512 161M419 412L314 411L285 302L389 302L419 412Z"  horiz-adv-x="754" vert-adv-y="1024"  />

      
      <glyph glyph-name="uni26" unicode="&#x26;" d="M573 311L491 311Q490 273 490 229Q490 185 490 134L490 82Q490 41 470 21Q452 0 409 0L93 0Q72 0 57 1.50Q42 3 32 14Q12 34 12 75L12 248Q12 262 15.50 286Q19 310 32 321Q44 334 60.50 343.50Q77 353 96 363L37 400Q17 416 15.50 440Q14 464 14 483L14 605Q14 617 15.50 634.50Q17 652 29 665Q57 696 95 696L407 696Q427 696 443 691.50Q459 687 473 672Q478 667 481.50 660.50Q485 654 487 639Q489 624 490 596Q491 568 491 520L335 520L335 560L159 560L159 425L335 425L335 463L491 464L491 426L573 426L573 311M159 309L159 135L334 135L335 309L159 309Z"  horiz-adv-x="633" vert-adv-y="1024"  />

      
      <glyph glyph-name="uni27" unicode="&#x27;" d="M91 499L91 539L12 558L12 696L169 696L170 499L91 499Z"  horiz-adv-x="230" vert-adv-y="1024"  />

      
      <glyph glyph-name="uni28" unicode="&#x28;" d="M197 0L270 0L270-135L195-135L146-135L140-135L123-135Q113-135 104-134Q95-133 87-130Q79-128 73-124Q67-120 62-115Q57-110 53.50-103.50Q50-97 47-90Q42-72 42-54L42-38L42-24L42-11L42 0L42 18L42 34L42 46L42 120L42 147L42 197L42 217L42 241L42 270L42 371L42 484L42 539L42 676L42 751Q42 769 47 787Q50 794 53.50 800.50Q57 807 62 812Q67 817 73 821Q79 825 87 827Q95 830 104 831Q113 832 123 832L137 832L157 832L187 832L230 832L273 832L273 696L197 696L197 521L197 254L197 0Z"  horiz-adv-x="333" vert-adv-y="1024"  />

      
      <glyph glyph-name="uni29" unicode="&#x29;" d="M15-135L15 0L88 0L88 254L88 521L88 696L12 696L12 832L55 832L98 832L128 832L148 832L162 832Q172 832 181 831Q190 830 198 827Q206 825 212 821Q218 817 223 812Q228 807 231.50 800.50Q235 794 238 787Q243 769 243 751L243 676L243 539L243 484L243 371L243 270L243 241L243 217L243 197L243 147L243 120L243 46L243 34L243 18L243 0L243-11L243-24L243-38L243-54Q243-72 238-90Q235-97 231.50-103.50Q228-110 223-115Q218-120 212-124Q206-128 198-130Q190-133 181-134Q172-135 162-135L145-135L139-135L90-135L15-135Z"  horiz-adv-x="303" vert-adv-y="1024"  />

      
      <glyph glyph-name="uni2a" unicode="&#x2a;" d="M139 726L178 703L159 668L119 692L120 643L75 643L75 692L33 669L13 707L55 726L12 749L33 787L75 763L74 813L118 813L119 763L158 787L180 749L139 726Z"  horiz-adv-x="227" vert-adv-y="1024"  />

      
      <glyph glyph-name="uni2c" unicode="&#x2c;" d="M12 0L12 138L169 138L170-59L91-59L91-19L12 0Z"  horiz-adv-x="183" vert-adv-y="1024"  />

      
      <glyph glyph-name="uni2d" unicode="&#x2d;" d="M7 272L7 395L217 395L217 272L7 272Z"  horiz-adv-x="272" vert-adv-y="1024"  />

      
      <glyph glyph-name="uni2e" unicode="&#x2e;" d="M12 0L12 138L169 138L170 0L12 0Z"  horiz-adv-x="230" vert-adv-y="1024"  />

      
      <glyph glyph-name="uni2f" unicode="&#x2f;" d="M217 696L370 696L187 0L21 0L217 696Z"  horiz-adv-x="420" vert-adv-y="1024"  />

      
      <glyph glyph-name="uni30" unicode="&#x30;" d="M491 651Q496 633 496 615L496 81Q496 63 491 45Q488 38 484.50 31.50Q481 25 476 20Q471 15 465 11Q459 7 451 5Q443 2 434 1Q425 0 415 0L93 0Q83 0 74 1Q65 2 57 5Q49 7 43 11Q37 15 32 20Q27 25 23.50 31.50Q20 38 17 45Q12 63 12 81L12 615Q12 633 17 651Q20 658 23.50 664.50Q27 671 32 676Q37 681 43 685Q49 689 57 691Q65 694 74 695Q83 696 93 696L415 696Q425 696 434 695Q443 694 451 691Q459 689 465 685Q471 681 476 676Q481 671 484.50 664.50Q488 658 491 651M340 135L340 560L167 560L167 135L340 135Z"  horiz-adv-x="556" vert-adv-y="1024"  />

      
      <glyph glyph-name="uni31" unicode="&#x31;" d="M97 560L12 560L57 696L270 696L271 0L97 0L97 560Z"  horiz-adv-x="351" vert-adv-y="1024"  />

      
      <glyph glyph-name="uni32" unicode="&#x32;" d="M499 0L15 0L15 345Q15 355 16 364Q17 373 20 381Q25 396 35 406Q46 416 59 421Q67 424 76.50 425Q86 426 96 426L341 426L341 560L168 560L168 483L12 483L12 615Q12 625 13 634Q14 643 17 651Q22 666 32 676Q43 686 56 691Q64 694 73.50 695Q83 696 93 696L415 696Q425 696 434 695Q443 694 451 691Q459 689 465 685Q471 681 476 676Q481 671 484.50 664.50Q488 658 491 651Q496 633 496 615L496 371Q496 352 491 339Q486 324 476 314Q466 304 452 299Q446 297 439.50 296Q433 295 415.50 294.50Q398 294 363 294Q328 294 264 294L189 293L169 293L169 281L169 281L170 135L499 135L499 0Z"  horiz-adv-x="600" vert-adv-y="1024"  />

      
      <glyph glyph-name="uni33" unicode="&#x33;" d="M471 360L496 335L496 81Q496 63 491 45Q488 38 484.50 31.50Q481 25 476 20Q471 15 465 11Q459 7 451 5Q443 2 429 1Q415 0 405 0L103 0Q93 0 78.50 1Q64 2 56 5Q43 10 32 20Q22 30 17 45Q14 53 13 62Q12 71 12 81L12 213L168 213L168 135L341 135L341 291L175 291L175 424L341 424L341 560L168 560L168 483L12 483L12 615Q12 625 13 634Q14 643 17 651Q22 666 32 676Q43 687 56 691Q64 694 79 695Q94 696 104 696L405 696Q415 696 429 695Q443 694 451 691Q459 689 465 685Q471 681 476 676Q481 671 484.50 664.50Q488 658 491 651Q496 633 496 615L496 386L471 360Z"  horiz-adv-x="600" vert-adv-y="1024"  />

      
      <glyph glyph-name="uni34" unicode="&#x34;" d="M461 169L461 0L292 0L293 169L-41 168L199 696L462 696L461 310L539 310L539 169L461 169M294 544L199 310L293 310L294 544Z"  horiz-adv-x="557" vert-adv-y="1024"  />

      
      <glyph glyph-name="uni35" unicode="&#x35;" d="M169 469L189 469L264 468Q328 468 363 468Q398 468 415.50 467.50Q433 467 439.50 466Q446 465 452 463Q465 459 476 448Q486 438 491 423Q496 410 496 391L496 81Q496 63 491 45Q488 38 484.50 31.50Q481 25 476 20Q471 15 465 11Q459 7 451 5Q443 2 434 1Q425 0 415 0L93 0Q83 0 73.50 1Q64 2 56 5Q43 10 32 20Q22 30 17 45Q14 53 13 62Q12 71 12 81L12 213L168 213L168 136L341 136L341 336L96 336Q86 336 76.50 337Q67 338 59 341Q46 346 35 356Q25 366 20 381Q17 389 16 398Q15 407 15 417L15 696L499 696L499 561L170 561L169 481L169 469Z"  horiz-adv-x="600" vert-adv-y="1024"  />

      
      <glyph glyph-name="uni36" unicode="&#x36;" d="M343 560L170 560L170 426L415 426Q425 426 434.50 425Q444 424 452 421Q466 417 476 406Q486 396 491 381Q494 373 495 364Q496 355 496 345L496 81Q496 63 491 45Q488 38 484.50 31.50Q481 25 476 20Q471 15 465 11Q459 7 451 5Q443 2 434 1Q425 0 415 0L93 0Q83 0 73.50 1Q64 2 56 5Q43 10 32 20Q22 30 17 45Q14 53 13 62Q12 71 12 81L12 213L14 213L14 419L170 418L170 390L168 213L168 135L341 135L342 281L342 293L169 294L170 390L170 418L15 419L15 615Q15 633 20 651Q23 658 26.50 664.50Q30 671 35 676Q40 681 46 685Q52 689 60 691Q68 694 77 695Q86 696 96 696L418 696Q428 696 437.50 695Q447 694 455 691Q469 687 479 676Q489 666 494 651Q497 643 498 634Q499 625 499 615L499 483L343 483L343 560Z"  horiz-adv-x="600" vert-adv-y="1024"  />

      
      <glyph glyph-name="uni37" unicode="&#x37;" d="M5 696L437 696L170 0L13 0L235 561L4 560L5 696Z"  horiz-adv-x="477" vert-adv-y="1024"  />

      
      <glyph glyph-name="uni38" unicode="&#x38;" d="M470 328Q483 317 486.50 293Q490 269 490 255L490 82Q490 41 470 21Q452 0 409 0L93 0Q72 0 57 1.50Q42 3 32 14Q12 34 12 75L12 248Q12 262 15.50 286Q19 310 32 321Q44 334 60.50 343.50Q77 353 96 363L37 400Q17 416 15.50 440Q14 464 14 483L14 605Q14 617 15.50 634.50Q17 652 29 665Q57 696 95 696L407 696Q427 696 443 691.50Q459 687 473 672Q485 659 486.50 641.50Q488 624 488 612L488 490Q488 471 486.50 447Q485 423 465 407L406 362Q425 354 441.50 347.50Q458 341 470 328M159 560L159 425L335 425L335 560L159 560M159 309L159 135L334 135L335 309L159 309Z"  horiz-adv-x="550" vert-adv-y="1024"  />

      
      <glyph glyph-name="uni39" unicode="&#x39;" d="M494 651Q497 643 498 634Q499 625 499 615L499 483L497 483L497 277L341 278L341 306L343 483L343 561L170 561L169 415L169 403L342 402L341 306L341 278L496 277L496 81Q496 63 491 45Q488 38 484.50 31.50Q481 25 476 20Q471 15 465 11Q459 7 451 5Q443 2 434 1Q425 0 415 0L93 0Q83 0 73.50 1Q64 2 56 5Q43 10 32 20Q22 30 17 45Q14 53 13 62Q12 71 12 81L12 213L168 213L168 136L341 136L341 270L96 270Q86 270 76.50 271Q67 272 59 275Q46 280 35 290Q25 300 20 315Q17 323 16 332Q15 341 15 351L15 615Q15 633 20 651Q23 658 26.50 664.50Q30 671 35 676Q40 681 46 685Q52 689 60 691Q68 694 77 695Q86 696 96 696L418 696Q428 696 437.50 695Q447 694 455 691Q469 687 479 676Q489 666 494 651Z"  horiz-adv-x="600" vert-adv-y="1024"  />

      
      <glyph glyph-name="uni3a" unicode="&#x3a;" d="M12 338L12 476L169 476L170 338L12 338M12 68L12 206L169 206L170 68L12 68Z"  horiz-adv-x="230" vert-adv-y="1024"  />

      
      <glyph glyph-name="uni3b" unicode="&#x3b;" d="M12 331L12 469L169 469L170 331L12 331M13 60L13 198L170 198L171 1L92 1L92 41L13 60Z"  horiz-adv-x="231" vert-adv-y="1024"  />

      
      <glyph glyph-name="uni3f" unicode="&#x3f;" d="M491 651Q496 633 496 615L496 351Q496 341 495 332Q494 323 491 315Q486 300 476 290Q465 279 452 275Q444 272 434.50 271Q425 270 415 270L170 270L170 189L15 189L15 325Q15 344 20 357Q25 372 35 382Q46 393 59 397Q65 399 71.50 400Q78 401 95.50 401.50Q113 402 148 402Q183 402 247 402L322 403L342 403L342 415L342 415L341 561L168 561L168 483L12 483L12 615Q12 625 13 634Q14 643 17 651Q22 666 32 676Q43 687 56 691Q64 694 73.50 695Q83 696 93 696L415 696Q425 696 434 695Q443 694 451 691Q459 689 465 685Q471 681 476 676Q481 671 484.50 664.50Q488 658 491 651M170 0L12 0L12 138L169 138L170 0Z"  horiz-adv-x="600" vert-adv-y="1024"  />

      
      <glyph glyph-name="uni41" unicode="&#x41;" d="M191 116Q190 111 188 96Q186 81 183.50 62.50Q181 44 178.50 26.50Q176 9 174 0L12 0L12 2L165 696L342 696L495 2L495 0L333 0Q331 19 327 48.50Q323 78 317 116L191 116M213 232L294 232Q287 272 277 332.50Q267 393 254 472Q250 452 246 427Q242 402 237 372L213 232Z"  horiz-adv-x="545" vert-adv-y="1024"  />

      
      <glyph glyph-name="uni42" unicode="&#x42;" d="M14 0L12 696L354 696Q374 696 390 691.50Q406 687 420 672Q432 659 433.50 641.50Q435 624 435 612L435 490Q435 471 433.50 447Q432 423 412 407Q392 393 379 383.50Q366 374 353 366Q372 356 388.50 348.50Q405 341 417 328Q430 317 433.50 293Q437 269 437 255L437 82Q437 41 417 21Q399 0 356 0L14 0M166 560L166 425L282 425L282 560L166 560M166 135L281 135L282 309Q278 309 261 309Q244 309 224.50 309Q205 309 188 309Q171 309 166 309L166 135Z"  horiz-adv-x="497" vert-adv-y="1024"  />

      
      <glyph glyph-name="uni43" unicode="&#x43;" d="M340 135L340 213L496 213L496 81Q496 71 495 62Q494 53 491 45Q486 30 476 20Q466 10 452 5Q444 2 434.50 1Q425 0 415 0L93 0Q83 0 74 1Q65 2 57 5Q49 7 43 11Q37 15 32 20Q27 25 23.50 31.50Q20 38 17 45Q12 63 12 81L12 615Q12 633 17 651Q20 658 23.50 664.50Q27 671 32 676Q37 681 43 685Q49 689 57 691Q65 694 74 695Q83 696 93 696L415 696Q425 696 434.50 695Q444 694 452 691Q466 687 476 676Q486 666 491 651Q494 643 495 634Q496 625 496 615L496 483L340 483L340 560L167 560L167 135L340 135Z"  horiz-adv-x="556" vert-adv-y="1024"  />

      
      <glyph glyph-name="uni44" unicode="&#x44;" d="M492 651Q496 637 496.50 623Q497 609 497 599L497 81Q497 63 492 45Q489 38 485.50 31.50Q482 25 477 20Q472 15 466 11Q460 7 452 5Q444 2 435 1Q426 0 416 0L14 0L12 696L416 696Q426 696 435 695Q444 694 452 691Q460 689 466 685Q472 681 477 676Q482 671 485.50 664.50Q489 658 492 651M341 135L338 560L168 560L168 135L341 135Z"  horiz-adv-x="557" vert-adv-y="1024"  />

      
      <glyph glyph-name="uni45" unicode="&#x45;" d="M12 696L399 696L399 640L399 560L167 560L167 426L380 426L380 310L167 310L167 135L399 135L399 0L12 0L12 696Z"  horiz-adv-x="459" vert-adv-y="1024"  />

      
      <glyph glyph-name="uni46" unicode="&#x46;" d="M12 696L399 696L399 640L399 560L167 560L167 426L380 426L380 310L167 310L165 0L12 0L12 696Z"  horiz-adv-x="459" vert-adv-y="1024"  />

      
      <glyph glyph-name="uni47" unicode="&#x47;" d="M340 560L167 560L167 135L340 135L340 255L267 255L267 368L495 368L495 255L496 255L496 81Q496 71 495 62Q494 53 491 45Q486 30 476 20Q466 10 452 5Q444 2 434.50 1Q425 0 415 0L93 0Q83 0 74 1Q65 2 57 5Q49 7 43 11Q37 15 32 20Q27 25 23.50 31.50Q20 38 17 45Q12 63 12 81L12 615Q12 633 17 651Q20 658 23.50 664.50Q27 671 32 676Q37 681 43 685Q49 689 57 691Q65 694 74 695Q83 696 93 696L415 696Q425 696 434.50 695Q444 694 452 691Q466 687 476 676Q486 666 491 651Q494 643 495 634Q496 625 496 615L496 483L340 483L340 560Z"  horiz-adv-x="556" vert-adv-y="1024"  />

      
      <glyph glyph-name="uni48" unicode="&#x48;" d="M378 289L165 289L165 0L12 0L12 696L165 696L165 426L378 426L378 696L534 696L532 0L378 0L378 289Z"  horiz-adv-x="594" vert-adv-y="1024"  />

      
      <glyph glyph-name="uni49" unicode="&#x49;" d="M186 0L12 0L12 696L185 696L186 0Z"  horiz-adv-x="226" vert-adv-y="1024"  />

      
      <glyph glyph-name="uni4a" unicode="&#x4a;" d="M12 213L168 213L168 135L262 135L262 696L416 696Q418 549 418.50 447.50Q419 346 419 280Q419 214 418.50 177.50Q418 141 418 123.50Q418 106 417.50 102Q417 98 417 97L417 81Q417 63 412 45Q409 38 405.50 31.50Q402 25 397 20Q392 15 386 11Q380 7 372 5Q364 2 355 1Q346 0 336 0L93 0Q83 0 73.50 1Q64 2 56 5Q43 10 32 20Q22 30 17 45Q14 53 13 62Q12 71 12 81L12 213Z"  horiz-adv-x="479" vert-adv-y="1024"  />

      
      <glyph glyph-name="uni4b" unicode="&#x4b;" d="M282 0L165 275L165 0L12 0L12 696L166 696L165 442L263 696L417 696L417 690L282 367L437 1Q437-1 434-1Q431-1 429 0Q422 1 422 0L282 0Z"  horiz-adv-x="497" vert-adv-y="1024"  />

      
      <glyph glyph-name="uni4c" unicode="&#x4c;" d="M166 696L167 140L369 140L368 0L12 0L12 696L166 696Z"  horiz-adv-x="399" vert-adv-y="1024"  />

      
      <glyph glyph-name="uni4d" unicode="&#x4d;" d="M388 696L534 696L534 0Q507 0 488 0Q469 0 454 0Q439 0 426 0Q413 0 399 0L399 348L322 96L225 96L148 345L148 0Q119 0 98.50 0Q78 0 62.50 0Q47 0 35.50 0Q24 0 12 0L12 696L147 696L272 386L388 696Z"  horiz-adv-x="594" vert-adv-y="1024"  />

      
      <glyph glyph-name="uni4e" unicode="&#x4e;" d="M396 329L396 696L551 696L551 0L416 0L181 368L181 0L30 0L30 696L164 696L396 329Z"  horiz-adv-x="611" vert-adv-y="1024"  />

      
      <glyph glyph-name="uni4f" unicode="&#x4f;" d="M491 651Q496 633 496 615L496 81Q496 63 491 45Q488 38 484.50 31.50Q481 25 476 20Q471 15 465 11Q459 7 451 5Q443 2 434 1Q425 0 415 0L93 0Q83 0 74 1Q65 2 57 5Q49 7 43 11Q37 15 32 20Q27 25 23.50 31.50Q20 38 17 45Q12 63 12 81L12 615Q12 633 17 651Q20 658 23.50 664.50Q27 671 32 676Q37 681 43 685Q49 689 57 691Q65 694 74 695Q83 696 93 696L415 696Q425 696 434 695Q443 694 451 691Q459 689 465 685Q471 681 476 676Q481 671 484.50 664.50Q488 658 491 651M340 135L340 560L167 560L167 135L181 135L200 135L322 135L340 135Z"  horiz-adv-x="556" vert-adv-y="1024"  />

      
      <glyph glyph-name="uni50" unicode="&#x50;" d="M167 132L167 0L104 0L12 0L12 696L365 696Q386 696 402 695Q418 694 428 683Q450 664 450 623L450 309Q450 269 428 247Q405 227 364 227L281 227L167 227L167 132M167 560L167 348L303 348L303 560L167 560Z"  horiz-adv-x="510" vert-adv-y="1024"  />

      
      <glyph glyph-name="uni51" unicode="&#x51;" d="M460-53L406 2L93 0Q83 0 74 1Q65 2 57 5Q49 7 43 11Q37 15 32 20Q27 25 23.50 31.50Q20 38 17 45Q12 63 12 81Q12 83 12 125Q12 167 12.50 229Q13 291 13.50 364Q14 437 14.50 500Q15 563 15.50 605.50Q16 648 17 651Q20 658 23.50 664.50Q27 671 32 676Q37 681 43 685Q49 689 57 691Q65 694 77.50 695Q90 696 110 696L405 696Q415 696 429 695Q443 694 451 691Q459 689 465 685Q471 681 476 676Q481 671 484.50 664.50Q488 658 491 651Q492 648 492.50 643Q493 638 493.50 622.50Q494 607 494.50 576.50Q495 546 495.50 492Q496 438 496 356Q496 274 496 156L496 81L548 28L460-53M167 560L167 135L340 135L340 560L167 560Z"  horiz-adv-x="598" vert-adv-y="1024"  />

      
      <glyph glyph-name="uni52" unicode="&#x52;" d="M19 0L12 696L340 696Q358 696 378.50 695Q399 694 410 684Q433 665 433 623L433 589L433 379Q433 358 428 343Q423 328 413 317Q394 298 351 298L330 298L327 298L322 298L455 7L455 3L455 0L358 0L289 0L172 259L172 0L82 0L19 0M155 470L155 387L230 387L290 387L290 560L155 560L155 470Z"  horiz-adv-x="515" vert-adv-y="1024"  />

      
      <glyph glyph-name="uni53" unicode="&#x53;" d="M343 560L170 560L170 426L415 426Q425 426 434.50 425Q444 424 452 421Q466 416 476 406Q486 396 491 381Q494 373 495 364Q496 355 496 345L496 81Q496 63 491 45Q488 38 484.50 31.50Q481 25 476 20Q471 15 465 11Q459 7 451 5Q443 2 428 1Q413 0 403 0L106 0Q96 0 80 1Q64 2 56 5Q43 9 32 20Q22 30 17 45Q14 53 13 62Q12 71 12 81L12 213L168 213L168 135L342 135L342 281L342 294L247 294Q183 294 148 294Q113 294 95.50 294.50Q78 295 71.50 296Q65 297 59 299Q46 303 35 314Q25 324 20 339Q15 352 15 371L15 615Q15 633 20 651Q23 658 26.50 664.50Q30 671 35 676Q40 681 46 685Q52 689 60 691Q68 694 84.50 695Q101 696 111 696L401 696Q411 696 429 695Q447 694 455 691Q469 687 479 676Q489 666 494 651Q497 643 498 634Q499 625 499 615L499 483L343 483L343 560Z"  horiz-adv-x="559" vert-adv-y="1024"  />

      
      <glyph glyph-name="uni54" unicode="&#x54;" d="M284 0L183 0L183 234L183 560L12 560L12 618L12 696L531 696L531 641L531 560L357 560L357 328L357 0L284 0Z"  horiz-adv-x="571" vert-adv-y="1024"  />

      
      <glyph glyph-name="uni55" unicode="&#x55;" d="M340 170L337 696L496 696L496 81Q496 71 495 62Q494 53 491 45Q486 30 476 20Q466 10 452 5Q444 2 429.50 1Q415 0 405 0L103 0Q93 0 79 1Q65 2 57 5Q49 7 43 11Q37 15 32 20Q27 25 23.50 31.50Q20 38 17 45Q12 63 12 81L12 696L161 696L167 135L340 135L340 170Z"  horiz-adv-x="574" vert-adv-y="1024"  />

      
      <glyph glyph-name="uni56" unicode="&#x56;" d="M160 0L0 696L180 696L270 270L360 696L530 696L370 0L160 0Z"  horiz-adv-x="574" vert-adv-y="1024"  />

      
      <glyph glyph-name="uni57" unicode="&#x57;" d="M666 696L595 0L449 0L333 310L208 0L129 0L73 0L12 696Q35 696 55 696.50Q75 697 92 696L177 696L209 351L286 600L383 600L460 348L504 696Q518 696 534 696Q550 696 565.50 696Q581 696 593.50 696Q606 696 612 696L666 696Z"  horiz-adv-x="706" vert-adv-y="1024"  />

      
      <glyph glyph-name="uni58" unicode="&#x58;" d="M487 0L336 0L253 266L158 0L12 0L12 6L137 360L29 690L29 696L180 696L250 426L250 425L332 696L469 696L469 690L362 360L487 6L487 0Z"  horiz-adv-x="527" vert-adv-y="1024"  />

      
      <glyph glyph-name="uni59" unicode="&#x59;" d="M335 234L316 0L142 0L181 232L0 696L176 696L258 444L352 696L541 696L335 234Z"  horiz-adv-x="581" vert-adv-y="1024"  />

      
      <glyph glyph-name="uni5a" unicode="&#x5a;" d="M391 696L213 140L384 140L382 0L13 0L189 561L12 560L13 696L391 696Z"  horiz-adv-x="451" vert-adv-y="1024"  />

      
      <glyph glyph-name="uni5b" unicode="&#x5b;" d="M167 0L240 0L240-135L165-135L116-135L110-135L12-135L12 120L12 147L12 197L12 217L12 241L12 270L12 371L12 484L12 539L12 696L12 832L243 832L243 696L167 696L167 521L167 254L167 0Z"  horiz-adv-x="303" vert-adv-y="1024"  />

      
      <glyph glyph-name="uni5c" unicode="&#x5c;" d="M204 0L21 696L174 696L370 0L204 0Z"  horiz-adv-x="420" vert-adv-y="1024"  />

      
      <glyph glyph-name="uni5d" unicode="&#x5d;" d="M15-135L15 0L88 0L88 254L88 521L88 696L12 696L12 832L243 832L243 696L243 539L243 484L243 371L243 270L243 241L243 217L243 197L243 147L243 120L243-135L145-135L139-135L90-135L15-135Z"  horiz-adv-x="303" vert-adv-y="1024"  />

      
      <glyph glyph-name="uni5f" unicode="&#x5f;" d="M12-145L12-22L442-22L442-145L12-145Z"  horiz-adv-x="502" vert-adv-y="1024"  />

      
      <glyph glyph-name="uni61" unicode="&#x61;" d="M191 116Q190 111 188 96Q186 81 183.50 62.50Q181 44 178.50 26.50Q176 9 174 0L12 0L12 2L165 696L342 696L495 2L495 0L333 0Q331 19 327 48.50Q323 78 317 116L191 116M213 232L294 232Q287 272 277 332.50Q267 393 254 472Q250 452 246 427Q242 402 237 372L213 232Z"  horiz-adv-x="555" vert-adv-y="1024"  />

      
      <glyph glyph-name="uni62" unicode="&#x62;" d="M14 0L12 696L354 696Q374 696 390 691.50Q406 687 420 672Q432 659 433.50 641.50Q435 624 435 612L435 490Q435 471 433.50 447Q432 423 412 407Q392 393 379 383.50Q366 374 353 366Q372 356 388.50 348.50Q405 341 417 328Q430 317 433.50 293Q437 269 437 255L437 134L437 119L437 109L437 82Q437 41 417 21Q399 0 356 0L214 0L14 0M166 425L199 425L282 425L282 454L282 507L282 560L166 560L166 515L166 425M166 135L215 135L281 135Q281 149 281 167Q281 185 282 207L282 309Q264 308 234 309L201 309L166 309L166 276L166 236L166 135Z"  horiz-adv-x="497" vert-adv-y="1024"  />

      
      <glyph glyph-name="uni63" unicode="&#x63;" d="M340 213L372 213L425 213L455 213L496 213L496 151L496 81Q496 71 495 62Q494 53 491 45Q486 30 476 20Q466 10 452 5Q444 2 434.50 1Q425 0 415 0L116 0L110 0L93 0Q83 0 74 1Q65 2 57 5Q49 7 43 11Q37 15 32 20Q27 25 23.50 31.50Q20 38 17 45Q12 63 12 81L12 97L12 111L12 615Q12 633 17 651Q20 658 23.50 664.50Q27 671 32 676Q37 681 43 685Q49 689 57 691Q65 694 74 695Q83 696 93 696L107 696L127 696L400 696L415 696Q425 696 434.50 695Q444 694 452 691Q466 687 476 676Q486 666 491 651Q494 643 495 634Q496 625 496 615L496 599L496 585L496 573L496 562L496 528L496 507L496 498L496 483L463 483L411 483L381 483L340 483L340 521L340 560L167 560L167 517L167 457L167 323L167 135L180 135L309 135L322 135L340 135L340 170L340 213Z"  horiz-adv-x="556" vert-adv-y="1024"  />

      
      <glyph glyph-name="uni64" unicode="&#x64;" d="M492 651Q497 633 497 615L497 599L497 81Q497 63 492 45Q489 38 485.50 31.50Q482 25 477 20Q472 15 466 11Q460 7 452 5Q444 2 435 1Q426 0 416 0L166 0L117 0L113 0L14 0L13 135L13 181L13 310L13 339L13 420L13 540L12 696L128 696L401 696L416 696Q426 696 435 695Q444 694 452 691Q460 689 466 685Q472 681 477 676Q482 671 485.50 664.50Q489 658 492 651M341 135L338 560L168 560L168 323L168 281L168 135L182 135L201 135L323 135L341 135Z"  horiz-adv-x="557" vert-adv-y="1024"  />

      
      <glyph glyph-name="uni65" unicode="&#x65;" d="M12 696L399 696L399 560L167 560L167 426L380 426L380 310L167 310L167 135L399 135L399 0L12 0L12 696Z"  horiz-adv-x="459" vert-adv-y="1024"  />

      
      <glyph glyph-name="uni66" unicode="&#x66;" d="M12 696L399 696L399 640L399 560L167 560L167 426L380 426L380 310L167 310L165 0L12 0L12 696Z"  horiz-adv-x="449" vert-adv-y="1024"  />

      
      <glyph glyph-name="uni67" unicode="&#x67;" d="M340 560L167 560L167 135L340 135L340 255L267 255L267 368L495 368L495 255L496 255L496 81Q496 71 495 62Q494 53 491 45Q486 30 476 20Q466 10 452 5Q444 2 434.50 1Q425 0 415 0L93 0Q83 0 74 1Q65 2 57 5Q49 7 43 11Q37 15 32 20Q27 25 23.50 31.50Q20 38 17 45Q12 63 12 81L12 615Q12 633 17 651Q20 658 23.50 664.50Q27 671 32 676Q37 681 43 685Q49 689 57 691Q65 694 74 695Q83 696 93 696L415 696Q425 696 434.50 695Q444 694 452 691Q466 687 476 676Q486 666 491 651Q494 643 495 634Q496 625 496 615L496 483L340 483L340 560Z"  horiz-adv-x="546" vert-adv-y="1024"  />

      
      <glyph glyph-name="uni68" unicode="&#x68;" d="M378 289L165 289L165 0L12 0L12 696L165 696L165 426L378 426L378 696L534 696L532 0L378 0L378 289Z"  horiz-adv-x="600" vert-adv-y="1024"  />

      
      <glyph glyph-name="uni69" unicode="&#x69;" d="M12 0L12 696L185 696L186 0L113 0L12 0Z"  horiz-adv-x="226" vert-adv-y="1024"  />

      
      <glyph glyph-name="uni6a" unicode="&#x6a;" d="M12 213L168 213L168 135L262 135L262 696L416 696Q418 549 418.50 447.50Q419 346 419 280Q419 214 418.50 177.50Q418 141 418 123.50Q418 106 417.50 102Q417 98 417 97L417 81Q417 63 412 45Q409 38 405.50 31.50Q402 25 397 20Q392 15 386 11Q380 7 372 5Q364 2 355 1Q346 0 336 0L93 0Q83 0 73.50 1Q64 2 56 5Q43 10 32 20Q22 30 17 45Q14 53 13 62Q12 71 12 81L12 213Z"  horiz-adv-x="479" vert-adv-y="1024"  />

      
      <glyph glyph-name="uni6b" unicode="&#x6b;" d="M282 0L165 275L165 0L12 0L12 696L166 696Q166 670 166 633Q166 596 165.50 559Q165 522 164.50 490Q164 458 165 442L263 696L417 696L417 690L282 367L437 1Q437-1 434-1Q431-1 429 0Q422 1 422 0L282 0Z"  horiz-adv-x="497" vert-adv-y="1024"  />

      
      <glyph glyph-name="uni6c" unicode="&#x6c;" d="M166 696L167 140L369 140L368 0L178 0L128 0L57 0L38 0L12 0L12 289L12 696L75 696L166 696Z"  horiz-adv-x="399" vert-adv-y="1024"  />

      
      <glyph glyph-name="uni6d" unicode="&#x6d;" d="M388 696L534 696L534 0L399 0L399 348L322 96L225 96L148 345L148 0L12 0L12 696L147 696L272 386L388 696Z"  horiz-adv-x="600" vert-adv-y="1024"  />

      
      <glyph glyph-name="uni6e" unicode="&#x6e;" d="M396 329L396 696L551 696L551 0L416 0L181 368L181 0L30 0L30 696L164 696L396 329Z"  horiz-adv-x="600" vert-adv-y="1024"  />

      
      <glyph glyph-name="uni6f" unicode="&#x6f;" d="M491 651Q496 633 496 615L496 81Q496 63 491 45Q488 38 484.50 31.50Q481 25 476 20Q471 15 465 11Q459 7 451 5Q443 2 434 1Q425 0 415 0L93 0Q83 0 74 1Q65 2 57 5Q49 7 43 11Q37 15 32 20Q27 25 23.50 31.50Q20 38 17 45Q12 63 12 81L12 615Q12 633 17 651Q20 658 23.50 664.50Q27 671 32 676Q37 681 43 685Q49 689 57 691Q65 694 74 695Q83 696 93 696L415 696Q425 696 434 695Q443 694 451 691Q459 689 465 685Q471 681 476 676Q481 671 484.50 664.50Q488 658 491 651M340 135L340 560L167 560L167 135L340 135Z"  horiz-adv-x="556" vert-adv-y="1024"  />

      
      <glyph glyph-name="uni70" unicode="&#x70;" d="M167 227L167 0L12 0L12 696L365 696Q386 696 402 695Q418 694 428 683Q450 664 450 623L450 309Q450 269 428 247Q405 227 364 227L167 227M303 560L167 560L167 348L303 348L303 560Z"  horiz-adv-x="510" vert-adv-y="1024"  />

      
      <glyph glyph-name="uni71" unicode="&#x71;" d="M460-53L406 2L93 0Q83 0 74 1Q65 2 57 5Q49 7 43 11Q37 15 32 20Q27 25 23.50 31.50Q20 38 17 45Q12 63 12 81Q12 83 12 125Q12 167 12.50 229Q13 291 13.50 364Q14 437 14.50 500Q15 563 15.50 605.50Q16 648 17 651Q20 658 23.50 664.50Q27 671 32 676Q37 681 43 685Q49 689 57 691Q65 694 74 695Q83 696 93 696L415 696Q425 696 434 695Q443 694 451 691Q459 689 465 685Q471 681 476 676Q481 671 484.50 664.50Q488 658 491 651Q492 648 492.50 643Q493 638 493.50 622.50Q494 607 494.50 576.50Q495 546 495.50 492Q496 438 496 356Q496 274 496 156L496 81L548 28L460-53M167 560L167 135L340 135L340 560L167 560Z"  horiz-adv-x="598" vert-adv-y="1024"  />

      
      <glyph glyph-name="uni72" unicode="&#x72;" d="M19 0L12 696L351 696Q369 696 384 695Q399 694 410 684Q433 665 433 623L433 379Q433 358 428 343Q423 328 413 317Q394 298 351 298L322 298L455 7L455 0L289 0L172 259L172 0L19 0M155 560L155 387L290 387L290 560L155 560Z"  horiz-adv-x="515" vert-adv-y="1024"  />

      
      <glyph glyph-name="uni73" unicode="&#x73;" d="M343 560L170 560L170 426L415 426Q425 426 434.50 425Q444 424 452 421Q466 416 476 406Q486 396 491 381Q494 373 495 364Q496 355 496 345L496 81Q496 63 491 45Q488 38 484.50 31.50Q481 25 476 20Q471 15 465 11Q459 7 451 5Q443 2 434 1Q425 0 415 0L93 0Q83 0 73.50 1Q64 2 56 5Q43 9 32 20Q22 30 17 45Q14 53 13 62Q12 71 12 81L12 213L168 213L168 135L342 135L342 281L342 294L247 294Q183 294 148 294Q113 294 95.50 294.50Q78 295 71.50 296Q65 297 59 299Q46 303 35 314Q25 324 20 339Q15 352 15 371L15 615Q15 633 20 651Q23 658 26.50 664.50Q30 671 35 676Q40 681 46 685Q52 689 60 691Q68 694 77 695Q86 696 96 696L418 696Q428 696 437.50 695Q447 694 455 691Q469 687 479 676Q489 666 494 651Q497 643 498 634Q499 625 499 615L499 483L343 483L343 560Z"  horiz-adv-x="559" vert-adv-y="1024"  />

      
      <glyph glyph-name="uni74" unicode="&#x74;" d="M357 0L183 0L183 560L12 560L12 696L531 696L531 560L357 560L357 0Z"  horiz-adv-x="571" vert-adv-y="1024"  />

      
      <glyph glyph-name="uni75" unicode="&#x75;" d="M340 170L337 696L496 696L496 81Q496 71 495 62Q494 53 491 45Q486 30 476 20Q466 10 452 5Q444 2 434.50 1Q425 0 415 0L116 0L110 0L93 0Q83 0 74 1Q65 2 57 5Q49 7 43 11Q37 15 32 20Q27 25 23.50 31.50Q20 38 17 45Q12 63 12 81L12 97L12 696L161 696L167 135L180 135L309 135L322 135L340 135L340 170Z"  horiz-adv-x="536" vert-adv-y="1024"  />

      
      <glyph glyph-name="uni76" unicode="&#x76;" d="M160 0L0 696L180 696L270 270L360 696L530 696L370 0L160 0Z"  horiz-adv-x="570" vert-adv-y="1024"  />

      
      <glyph glyph-name="uni77" unicode="&#x77;" d="M666 696L595 0L449 0L333 310L208 0L73 0L12 696L177 696L209 351L286 600L383 600L460 348L504 696L666 696Z"  horiz-adv-x="706" vert-adv-y="1024"  />

      
      <glyph glyph-name="uni78" unicode="&#x78;" d="M487 0L336 0L253 266L158 0L12 0L12 6L137 360L29 690L29 696L180 696L250 426L250 425L332 696L469 696L469 690L362 360L487 6L487 0Z"  horiz-adv-x="527" vert-adv-y="1024"  />

      
      <glyph glyph-name="uni79" unicode="&#x79;" d="M335 234L316 0L142 0L181 232L0 696L176 696L258 444L352 696L541 696L335 234Z"  horiz-adv-x="591" vert-adv-y="1024"  />

      
      <glyph glyph-name="uni7a" unicode="&#x7a;" d="M391 696L213 140L384 140L382 0L13 0L189 561L12 560L13 696L391 696Z"  horiz-adv-x="505" vert-adv-y="1024"  />

      
      <glyph glyph-name="uni7c" unicode="&#x7c;" d="M127-94L12-94L12 792L126 792L127-94Z"  horiz-adv-x="177" vert-adv-y="1024"  />

      
      <glyph glyph-name="unia1" unicode="&#xa1;" d="M12 573L12 696L137 696L137 573L12 573M12 0L14 528L137 528L138 0L12 0Z"  horiz-adv-x="188" vert-adv-y="1024"  />

      
      <glyph glyph-name="unibf" unicode="&#xbf;" d="M496 558L339 558L338 696L496 696L496 558M496 213L496 81Q496 71 495 62Q494 53 491 45Q486 30 476 20Q466 9 452 5Q444 2 434.50 1Q425 0 415 0L93 0Q83 0 74 1Q65 2 57 5Q49 7 43 11Q37 15 32 20Q27 25 23.50 31.50Q20 38 17 45Q12 63 12 81L12 345Q12 355 13 364Q14 373 17 381Q22 396 32 406Q43 416 56 421Q64 424 73.50 425Q83 426 93 426L338 426L338 507L493 507L493 371Q493 352 488 339Q483 324 473 314Q463 304 449 299Q443 297 436.50 296Q430 295 412.50 294.50Q395 294 360 294Q325 294 261 294L186 293L166 293L166 281L166 281L167 135L340 135L340 213L496 213Z"  horiz-adv-x="600" vert-adv-y="1024"  />

      
      <glyph glyph-name="unic0" unicode="&#xc0;" d="M75 918L235 918L328 774L161 774L75 918M191 116Q190 111 188 96Q186 81 183.50 62.50Q181 44 178.50 26.50Q176 9 174 0L12 0L12 2L165 696L342 696L495 2L495 0L333 0Q331 19 327 48.50Q323 78 317 116L191 116M213 232L294 232Q287 272 277 332.50Q267 393 254 472Q250 452 246 427Q242 402 237 372L213 232Z"  horiz-adv-x="545" vert-adv-y="1024"  />

      
      <glyph glyph-name="unic1" unicode="&#xc1;" d="M171 774L264 918L424 918L338 774L171 774M191 116Q190 111 188 96Q186 81 183.50 62.50Q181 44 178.50 26.50Q176 9 174 0L12 0L12 2L165 696L342 696L495 2L495 0L333 0Q331 19 327 48.50Q323 78 317 116L191 116M213 232L294 232Q287 272 277 332.50Q267 393 254 472Q250 452 246 427Q242 402 237 372L213 232Z"  horiz-adv-x="600" vert-adv-y="1024"  />

      
      <glyph glyph-name="unic2" unicode="&#xc2;" d="M167 760L117 822L250 920L388 824L342 760L251 827L167 760M191 116Q190 111 188 96Q186 81 183.50 62.50Q181 44 178.50 26.50Q176 9 174 0L12 0L12 2L165 696L342 696L495 2L495 0L333 0Q331 19 327 48.50Q323 78 317 116L191 116M213 232L294 232Q287 272 277 332.50Q267 393 254 472Q250 452 246 427Q242 402 237 372L213 232Z"  horiz-adv-x="555" vert-adv-y="1024"  />

      
      <glyph glyph-name="unic4" unicode="&#xc4;" d="M161 752Q184 752 199.50 767.50Q215 783 215 806Q215 829 199.50 844.50Q184 860 161 860Q138 860 122.50 844.50Q107 829 107 806Q107 783 122.50 767.50Q138 752 161 752M338 752Q361 752 376.50 767.50Q392 783 392 806Q392 829 376.50 844.50Q361 860 338 860Q315 860 299.50 844.50Q284 829 284 806Q284 783 299.50 767.50Q315 752 338 752M191 116Q190 111 188 96Q186 81 183.50 62.50Q181 44 178.50 26.50Q176 9 174 0L12 0L12 2L165 696L342 696L495 2L495 0L333 0Q331 19 327 48.50Q323 78 317 116L191 116M213 232L294 232Q287 272 277 332.50Q267 393 254 472Q250 452 246 427Q242 402 237 372L213 232Z"  horiz-adv-x="555" vert-adv-y="1024"  />

      
      <glyph glyph-name="unic6" unicode="&#xc6;" d="M728 641L728 561L496 561L496 427L709 427L709 311L496 311L496 136L728 136L728 0L341-1L341 0L333 0Q331 19 327 48.50Q323 78 317 116L191 116Q190 111 188 96Q186 81 183.50 62.50Q181 44 178.50 26.50Q176 9 174 0L12 0L12 2L165 696L341 696L341 697L728 697L728 641M294 232Q287 272 277 332.50Q267 393 254 472Q250 452 246 427Q242 402 237 372L213 232L294 232Z"  horiz-adv-x="788" vert-adv-y="1024"  />

      
      <glyph glyph-name="unic8" unicode="&#xc8;" d="M75 918L235 918L328 774L161 774L75 918M12 696L399 696L399 560L167 560L167 426L380 426L380 310L167 310L167 135L399 135L399 0L12 0L12 696Z"  horiz-adv-x="459" vert-adv-y="1024"  />

      
      <glyph glyph-name="unic9" unicode="&#xc9;" d="M117 774L210 918L370 918L284 774L117 774M12 696L399 696L399 640L399 560L167 560L167 426L380 426L380 310L167 310L167 135L399 135L399 0L12 0L12 696Z"  horiz-adv-x="600" vert-adv-y="1024"  />

      
      <glyph glyph-name="unica" unicode="&#xca;" d="M122 760L72 822L205 920L343 824L297 760L206 827L122 760M12 696L399 696L399 640L399 560L167 560L167 426L380 426L380 310L167 310L167 135L399 135L399 0L12 0L12 696Z"  horiz-adv-x="459" vert-adv-y="1024"  />

      
      <glyph glyph-name="unicb" unicode="&#xcb;" d="M110 752Q133 752 148.50 767.50Q164 783 164 806Q164 829 148.50 844.50Q133 860 110 860Q87 860 71.50 844.50Q56 829 56 806Q56 783 71.50 767.50Q87 752 110 752M287 752Q310 752 325.50 767.50Q341 783 341 806Q341 829 325.50 844.50Q310 860 287 860Q264 860 248.50 844.50Q233 829 233 806Q233 783 248.50 767.50Q264 752 287 752M12 696L399 696L399 560L167 560L167 426L380 426L380 310L167 310L167 135L399 135L399 0L12 0L12 696Z"  horiz-adv-x="459" vert-adv-y="1024"  />

      
      <glyph glyph-name="unicc" unicode="&#xcc;" d="M12 918L172 918L265 774L98 774L12 918M269 0L95 0L95 696L268 696L269 0Z"  horiz-adv-x="319" vert-adv-y="1024"  />

      
      <glyph glyph-name="unicd" unicode="&#xcd;" d="M15 774L108 918L268 918L182 774L15 774M186 0L12 0L12 696L185 696L186 0Z"  horiz-adv-x="318" vert-adv-y="1024"  />

      
      <glyph glyph-name="unice" unicode="&#xce;" d="M62 760L12 822L146 920L283 824L237 760L147 827L62 760M239 0L65 0L65 696L238 696L239 0Z"  horiz-adv-x="333" vert-adv-y="1024"  />

      
      <glyph glyph-name="unicf" unicode="&#xcf;" d="M66 752Q89 752 104.50 767.50Q120 783 120 806Q120 829 104.50 844.50Q89 860 66 860Q43 860 27.50 844.50Q12 829 12 806Q12 783 27.50 767.50Q43 752 66 752M243 752Q266 752 281.50 767.50Q297 783 297 806Q297 829 281.50 844.50Q266 860 243 860Q220 860 204.50 844.50Q189 829 189 806Q189 783 204.50 767.50Q220 752 243 752M239 0L65 0L65 696L238 696L239 0Z"  horiz-adv-x="347" vert-adv-y="1024"  />

      
      <glyph glyph-name="unid0" unicode="&#xd0;" d="M492 651Q496 637 496.50 623Q497 609 497 599L497 81Q497 63 492 45Q489 38 485.50 31.50Q482 25 477 20Q472 15 466 11Q460 7 452 5Q444 2 435 1Q426 0 416 0L14 0L13 272L7 272L7 395L13 395L12 696L416 696Q426 696 435 695Q444 694 452 691Q460 689 466 685Q472 681 477 676Q482 671 485.50 664.50Q489 658 492 651M341 135L338 560L168 560L168 395L217 395L217 272L168 272L168 135L341 135Z"  horiz-adv-x="557" vert-adv-y="1024"  />

      
      <glyph glyph-name="unid2" unicode="&#xd2;" d="M75 918L235 918L328 774L161 774L75 918M491 651Q496 633 496 615L496 81Q496 63 491 45Q488 38 484.50 31.50Q481 25 476 20Q471 15 465 11Q459 7 451 5Q443 2 434 1Q425 0 415 0L93 0Q83 0 74 1Q65 2 57 5Q49 7 43 11Q37 15 32 20Q27 25 23.50 31.50Q20 38 17 45Q12 63 12 81L12 615Q12 633 17 651Q20 658 23.50 664.50Q27 671 32 676Q37 681 43 685Q49 689 57 691Q65 694 74 695Q83 696 93 696L415 696Q425 696 434 695Q443 694 451 691Q459 689 465 685Q471 681 476 676Q481 671 484.50 664.50Q488 658 491 651M340 135L340 560L167 560L167 135L181 135L200 135L322 135L340 135Z"  horiz-adv-x="600" vert-adv-y="1024"  />

      
      <glyph glyph-name="unid3" unicode="&#xd3;" d="M167 774L260 918L420 918L334 774L167 774M491 651Q496 633 496 615L496 81Q496 63 491 45Q488 38 484.50 31.50Q481 25 476 20Q471 15 465 11Q459 7 451 5Q443 2 434 1Q425 0 415 0L93 0Q83 0 74 1Q65 2 57 5Q49 7 43 11Q37 15 32 20Q27 25 23.50 31.50Q20 38 17 45Q12 63 12 81L12 615Q12 633 17 651Q20 658 23.50 664.50Q27 671 32 676Q37 681 43 685Q49 689 57 691Q65 694 74 695Q83 696 93 696L415 696Q425 696 434 695Q443 694 451 691Q459 689 465 685Q471 681 476 676Q481 671 484.50 664.50Q488 658 491 651M340 135L340 560L167 560L167 135L181 135L200 135L322 135L340 135Z"  horiz-adv-x="600" vert-adv-y="1024"  />

      
      <glyph glyph-name="unid4" unicode="&#xd4;" d="M168 760L118 822L251 920L389 824L343 760L252 827L168 760M491 651Q496 633 496 615L496 81Q496 63 491 45Q488 38 484.50 31.50Q481 25 476 20Q471 15 465 11Q459 7 451 5Q443 2 434 1Q425 0 415 0L93 0Q83 0 74 1Q65 2 57 5Q49 7 43 11Q37 15 32 20Q27 25 23.50 31.50Q20 38 17 45Q12 63 12 81L12 615Q12 633 17 651Q20 658 23.50 664.50Q27 671 32 676Q37 681 43 685Q49 689 57 691Q65 694 74 695Q83 696 93 696L415 696Q425 696 434 695Q443 694 451 691Q459 689 465 685Q471 681 476 676Q481 671 484.50 664.50Q488 658 491 651M340 135L340 560L167 560L167 135L181 135L200 135L322 135L340 135Z"  horiz-adv-x="600" vert-adv-y="1024"  />

      
      <glyph glyph-name="unid6" unicode="&#xd6;" d="M169 752Q192 752 207.50 767.50Q223 783 223 806Q223 829 207.50 844.50Q192 860 169 860Q146 860 130.50 844.50Q115 829 115 806Q115 783 130.50 767.50Q146 752 169 752M346 752Q369 752 384.50 767.50Q400 783 400 806Q400 829 384.50 844.50Q369 860 346 860Q323 860 307.50 844.50Q292 829 292 806Q292 783 307.50 767.50Q323 752 346 752M491 651Q496 633 496 615L496 81Q496 63 491 45Q488 38 484.50 31.50Q481 25 476 20Q471 15 465 11Q459 7 451 5Q443 2 434 1Q425 0 415 0L93 0Q83 0 74 1Q65 2 57 5Q49 7 43 11Q37 15 32 20Q27 25 23.50 31.50Q20 38 17 45Q12 63 12 81L12 615Q12 633 17 651Q20 658 23.50 664.50Q27 671 32 676Q37 681 43 685Q49 689 57 691Q65 694 74 695Q83 696 93 696L415 696Q425 696 434 695Q443 694 451 691Q459 689 465 685Q471 681 476 676Q481 671 484.50 664.50Q488 658 491 651M340 135L340 560L167 560L167 135L181 135L200 135L322 135L340 135Z"  horiz-adv-x="556" vert-adv-y="1024"  />

      
      <glyph glyph-name="unid8" unicode="&#xd8;" d="M491 651Q496 633 496 615L496 81Q496 63 491 45Q488 38 484.50 31.50Q481 25 476 20Q471 15 465 11Q459 7 451 5Q443 2 434 1Q425 0 415 0L75 0L75 1Q65 2 57 5Q49 7 43 11Q37 15 32 20Q27 25 23.50 31.50Q20 38 17 45Q12 63 12 81L12 615Q12 633 17 651Q20 658 23.50 664.50Q27 671 32 676Q37 681 43 685Q49 689 57 691Q65 694 74 695Q83 696 93 696L424 696Q440 695 451 691Q459 689 465 685Q471 681 476 676Q481 671 484.50 664.50Q488 658 491 651M233 560L167 560L167 327L233 560M340 135L340 377L276 135L322 135L340 135Z"  horiz-adv-x="556" vert-adv-y="1024"  />

      
      <glyph glyph-name="unid9" unicode="&#xd9;" d="M75 918L235 918L328 774L161 774L75 918M340 170L337 696L496 696L496 81Q496 71 495 62Q494 53 491 45Q486 30 476 20Q466 10 452 5Q444 2 429.50 1Q415 0 405 0L103 0Q93 0 79 1Q65 2 57 5Q49 7 43 11Q37 15 32 20Q27 25 23.50 31.50Q20 38 17 45Q12 63 12 81L12 696L161 696L167 135L180 135L309 135L322 135L340 135L340 170Z"  horiz-adv-x="600" vert-adv-y="1024"  />

      
      <glyph glyph-name="unida" unicode="&#xda;" d="M167 774L260 918L420 918L334 774L167 774M340 170L337 696L496 696L496 81Q496 71 495 62Q494 53 491 45Q486 30 476 20Q466 10 452 5Q444 2 429.50 1Q415 0 405 0L103 0Q93 0 79 1Q65 2 57 5Q49 7 43 11Q37 15 32 20Q27 25 23.50 31.50Q20 38 17 45Q12 63 12 81L12 696L161 696L167 135L180 135L309 135L322 135L340 135L340 170Z"  horiz-adv-x="600" vert-adv-y="1024"  />

      
      <glyph glyph-name="unidb" unicode="&#xdb;" d="M168 760L118 822L251 920L389 824L343 760L252 827L168 760M340 170L337 696L496 696L496 81Q496 71 495 62Q494 53 491 45Q486 30 476 20Q466 10 452 5Q444 2 429.50 1Q415 0 405 0L103 0Q93 0 79 1Q65 2 57 5Q49 7 43 11Q37 15 32 20Q27 25 23.50 31.50Q20 38 17 45Q12 63 12 81L12 696L161 696L167 135L340 135L340 170Z"  horiz-adv-x="556" vert-adv-y="1024"  />

      
      <glyph glyph-name="unidc" unicode="&#xdc;" d="M164 752Q187 752 202.50 767.50Q218 783 218 806Q218 829 202.50 844.50Q187 860 164 860Q141 860 125.50 844.50Q110 829 110 806Q110 783 125.50 767.50Q141 752 164 752M341 752Q364 752 379.50 767.50Q395 783 395 806Q395 829 379.50 844.50Q364 860 341 860Q318 860 302.50 844.50Q287 829 287 806Q287 783 302.50 767.50Q318 752 341 752M340 170L337 696L496 696L496 81Q496 71 495 62Q494 53 491 45Q486 30 476 20Q466 10 452 5Q444 2 429.50 1Q415 0 405 0L103 0Q93 0 79 1Q65 2 57 5Q49 7 43 11Q37 15 32 20Q27 25 23.50 31.50Q20 38 17 45Q12 63 12 81L12 696L161 696L167 135L340 135L340 170Z"  horiz-adv-x="600" vert-adv-y="1024"  />

      
      <glyph glyph-name="unidd" unicode="&#xdd;" d="M174 774L267 918L427 918L341 774L174 774M335 234L316 0L142 0L181 232L0 696L176 696L258 444L352 696L541 696L335 234Z"  horiz-adv-x="600" vert-adv-y="1024"  />

      
      <glyph glyph-name="unie0" unicode="&#xe0;" d="M75 918L235 918L328 774L161 774L75 918M191 116Q190 111 188 96Q186 81 183.50 62.50Q181 44 178.50 26.50Q176 9 174 0L12 0L12 2L165 696L342 696L495 2L495 0L333 0Q331 19 327 48.50Q323 78 317 116L191 116M213 232L294 232L254 472L213 232Z"  horiz-adv-x="600" vert-adv-y="1024"  />

      
      <glyph glyph-name="unie1" unicode="&#xe1;" d="M171 774L264 918L424 918L338 774L171 774M191 116Q190 111 188 96Q186 81 183.50 62.50Q181 44 178.50 26.50Q176 9 174 0L12 0L12 2L165 696L342 696L495 2L495 0L333 0Q331 19 327 48.50Q323 78 317 116L191 116M213 232L294 232Q287 272 277 332.50Q267 393 254 472Q250 452 246 427Q242 402 237 372L213 232Z"  horiz-adv-x="555" vert-adv-y="1024"  />

      
      <glyph glyph-name="unie2" unicode="&#xe2;" d="M167 760L117 822L250 920L388 824L342 760L251 827L167 760M191 116Q190 111 188 96Q186 81 183.50 62.50Q181 44 178.50 26.50Q176 9 174 0L12 0L12 2L165 696L342 696L495 2L495 0L333 0Q331 19 327 48.50Q323 78 317 116L191 116M213 232L294 232Q287 272 277 332.50Q267 393 254 472Q250 452 246 427Q242 402 237 372L213 232Z"  horiz-adv-x="555" vert-adv-y="1024"  />

      
      <glyph glyph-name="unie4" unicode="&#xe4;" d="M75 918L235 918L328 774L161 774L75 918M191 116Q190 111 188 96Q186 81 183.50 62.50Q181 44 178.50 26.50Q176 9 174 0L12 0L12 2L165 696L342 696L495 2L495 0L333 0Q331 19 327 48.50Q323 78 317 116L191 116M213 232L294 232Q287 272 277 332.50Q267 393 254 472Q250 452 246 427Q242 402 237 372L213 232Z"  horiz-adv-x="555" vert-adv-y="1024"  />

      
      <glyph glyph-name="unie6" unicode="&#xe6;" d="M728 641L728 561L496 561L496 427L709 427L709 311L496 311L496 136L728 136L728 0L341-1L341 0L333 0Q331 19 327 48.50Q323 78 317 116L191 116Q190 111 188 96Q186 81 183.50 62.50Q181 44 178.50 26.50Q176 9 174 0L12 0L12 2L165 696L341 696L341 697L728 697L728 641M294 232Q287 272 277 332.50Q267 393 254 472Q250 452 246 427Q242 402 237 372L213 232L294 232Z"  horiz-adv-x="788" vert-adv-y="1024"  />

      
      <glyph glyph-name="unie8" unicode="&#xe8;" d="M75 918L235 918L328 774L161 774L75 918M12 696L399 696L399 560L167 560L167 426L380 426L380 310L167 310L167 135L399 135L399 0L12 0L12 696Z"  horiz-adv-x="459" vert-adv-y="1024"  />

      
      <glyph glyph-name="unie9" unicode="&#xe9;" d="M117 774L210 918L370 918L284 774L117 774M12 696L399 696L399 560L167 560L167 426L380 426L380 310L167 310L167 135L399 135L399 0L12 0L12 696Z"  horiz-adv-x="459" vert-adv-y="1024"  />

      
      <glyph glyph-name="uniea" unicode="&#xea;" d="M122 760L72 822L205 920L343 824L297 760L206 827L122 760M12 696L399 696L399 640L399 560L167 560L167 426L380 426L380 310L167 310L167 135L399 135L399 0L12 0L12 696Z"  horiz-adv-x="459" vert-adv-y="1024"  />

      
      <glyph glyph-name="unieb" unicode="&#xeb;" d="M110 752Q133 752 148.50 767.50Q164 783 164 806Q164 829 148.50 844.50Q133 860 110 860Q87 860 71.50 844.50Q56 829 56 806Q56 783 71.50 767.50Q87 752 110 752M287 752Q310 752 325.50 767.50Q341 783 341 806Q341 829 325.50 844.50Q310 860 287 860Q264 860 248.50 844.50Q233 829 233 806Q233 783 248.50 767.50Q264 752 287 752M12 696L399 696L399 560L167 560L167 426L380 426L380 310L167 310L167 135L399 135L399 0L12 0L12 696Z"  horiz-adv-x="459" vert-adv-y="1024"  />

      
      <glyph glyph-name="uniec" unicode="&#xec;" d="M12 918L172 918L265 774L98 774L12 918M269 0L95 0L95 696L268 696L269 0Z"  horiz-adv-x="319" vert-adv-y="1024"  />

      
      <glyph glyph-name="unied" unicode="&#xed;" d="M15 774L108 918L268 918L182 774L15 774M186 0L12 0L12 696L185 696L186 0Z"  horiz-adv-x="318" vert-adv-y="1024"  />

      
      <glyph glyph-name="uniee" unicode="&#xee;" d="M62 760L12 822L146 920L283 824L237 760L147 827L62 760M239 0L65 0L65 696L238 696L239 0Z"  horiz-adv-x="333" vert-adv-y="1024"  />

      
      <glyph glyph-name="unief" unicode="&#xef;" d="M66 752Q89 752 104.50 767.50Q120 783 120 806Q120 829 104.50 844.50Q89 860 66 860Q43 860 27.50 844.50Q12 829 12 806Q12 783 27.50 767.50Q43 752 66 752M243 752Q266 752 281.50 767.50Q297 783 297 806Q297 829 281.50 844.50Q266 860 243 860Q220 860 204.50 844.50Q189 829 189 806Q189 783 204.50 767.50Q220 752 243 752M239 0L65 0L65 696L238 696L239 0Z"  horiz-adv-x="347" vert-adv-y="1024"  />

      
      <glyph glyph-name="unif0" unicode="&#xf0;" d="M492 651Q496 637 496.50 623Q497 609 497 599L497 81Q497 63 492 45Q489 38 485.50 31.50Q482 25 477 20Q472 15 466 11Q460 7 452 5Q444 2 435 1Q426 0 416 0L14 0L13 272L7 272L7 395L13 395L12 696L416 696Q426 696 435 695Q444 694 452 691Q460 689 466 685Q472 681 477 676Q482 671 485.50 664.50Q489 658 492 651M341 135L338 560L168 560L168 395L217 395L217 272L168 272L168 135L341 135Z"  horiz-adv-x="557" vert-adv-y="1024"  />

      
      <glyph glyph-name="unif2" unicode="&#xf2;" d="M75 918L235 918L328 774L161 774L75 918M491 651Q496 633 496 615L496 81Q496 63 491 45Q488 38 484.50 31.50Q481 25 476 20Q471 15 465 11Q459 7 451 5Q443 2 434 1Q425 0 415 0L93 0Q83 0 74 1Q65 2 57 5Q49 7 43 11Q37 15 32 20Q27 25 23.50 31.50Q20 38 17 45Q12 63 12 81L12 615Q12 633 17 651Q20 658 23.50 664.50Q27 671 32 676Q37 681 43 685Q49 689 57 691Q65 694 74 695Q83 696 93 696L415 696Q425 696 434 695Q443 694 451 691Q459 689 465 685Q471 681 476 676Q481 671 484.50 664.50Q488 658 491 651M340 135L340 560L167 560L167 135L181 135L200 135L322 135L340 135Z"  horiz-adv-x="600" vert-adv-y="1024"  />

      
      <glyph glyph-name="unif3" unicode="&#xf3;" d="M162 774L255 918L415 918L329 774L162 774M491 651Q496 633 496 615L496 81Q496 63 491 45Q488 38 484.50 31.50Q481 25 476 20Q471 15 465 11Q459 7 451 5Q443 2 434 1Q425 0 415 0L93 0Q83 0 74 1Q65 2 57 5Q49 7 43 11Q37 15 32 20Q27 25 23.50 31.50Q20 38 17 45Q12 63 12 81L12 615Q12 633 17 651Q20 658 23.50 664.50Q27 671 32 676Q37 681 43 685Q49 689 57 691Q65 694 74 695Q83 696 93 696L415 696Q425 696 434 695Q443 694 451 691Q459 689 465 685Q471 681 476 676Q481 671 484.50 664.50Q488 658 491 651M340 135L340 560L167 560L167 135L181 135L200 135L322 135L340 135Z"  horiz-adv-x="556" vert-adv-y="1024"  />

      
      <glyph glyph-name="unif4" unicode="&#xf4;" d="M168 760L118 822L251 920L389 824L343 760L252 827L168 760M491 651Q496 633 496 615L496 81Q496 63 491 45Q488 38 484.50 31.50Q481 25 476 20Q471 15 465 11Q459 7 451 5Q443 2 434 1Q425 0 415 0L93 0Q83 0 74 1Q65 2 57 5Q49 7 43 11Q37 15 32 20Q27 25 23.50 31.50Q20 38 17 45Q12 63 12 81L12 615Q12 633 17 651Q20 658 23.50 664.50Q27 671 32 676Q37 681 43 685Q49 689 57 691Q65 694 74 695Q83 696 93 696L415 696Q425 696 434 695Q443 694 451 691Q459 689 465 685Q471 681 476 676Q481 671 484.50 664.50Q488 658 491 651M340 135L340 560L167 560L167 135L181 135L200 135L322 135L340 135Z"  horiz-adv-x="556" vert-adv-y="1024"  />

      
      <glyph glyph-name="unif6" unicode="&#xf6;" d="M169 752Q192 752 207.50 767.50Q223 783 223 806Q223 829 207.50 844.50Q192 860 169 860Q146 860 130.50 844.50Q115 829 115 806Q115 783 130.50 767.50Q146 752 169 752M346 752Q369 752 384.50 767.50Q400 783 400 806Q400 829 384.50 844.50Q369 860 346 860Q323 860 307.50 844.50Q292 829 292 806Q292 783 307.50 767.50Q323 752 346 752M491 651Q496 633 496 615L496 81Q496 63 491 45Q488 38 484.50 31.50Q481 25 476 20Q471 15 465 11Q459 7 451 5Q443 2 434 1Q425 0 415 0L93 0Q83 0 74 1Q65 2 57 5Q49 7 43 11Q37 15 32 20Q27 25 23.50 31.50Q20 38 17 45Q12 63 12 81L12 615Q12 633 17 651Q20 658 23.50 664.50Q27 671 32 676Q37 681 43 685Q49 689 57 691Q65 694 74 695Q83 696 93 696L415 696Q425 696 434 695Q443 694 451 691Q459 689 465 685Q471 681 476 676Q481 671 484.50 664.50Q488 658 491 651M340 135L340 560L167 560L167 135L181 135L200 135L322 135L340 135Z"  horiz-adv-x="556" vert-adv-y="1024"  />

      
      <glyph glyph-name="unif8" unicode="&#xf8;" d="M491 651Q496 633 496 615L496 81Q496 63 491 45Q488 38 484.50 31.50Q481 25 476 20Q471 15 465 11Q459 7 451 5Q443 2 434 1Q425 0 415 0L21 0L28 25Q24 29 21.50 34.50Q19 40 17 45Q12 63 12 81L12 615Q12 633 17 651Q20 658 23.50 664.50Q27 671 32 676Q37 681 43 685Q49 689 57 691Q65 694 74 695Q83 696 93 696L415 696Q425 696 434 695Q443 694 451 691Q459 689 465 685Q471 681 476 676Q481 671 484.50 664.50Q488 658 491 651M179 560L167 560L167 518L179 560M334 560L222 135L340 135L340 560L334 560Z"  horiz-adv-x="556" vert-adv-y="1024"  />

      
      <glyph glyph-name="unif9" unicode="&#xf9;" d="M75 918L235 918L328 774L161 774L75 918M340 170L337 696L496 696L496 81Q496 71 495 62Q494 53 491 45Q486 30 476 20Q466 10 452 5Q444 2 429.50 1Q415 0 405 0L103 0Q93 0 79 1Q65 2 57 5Q49 7 43 11Q37 15 32 20Q27 25 23.50 31.50Q20 38 17 45Q12 63 12 81L12 696L161 696L167 135L180 135L309 135L322 135L340 135L340 170Z"  horiz-adv-x="600" vert-adv-y="1024"  />

      
      <glyph glyph-name="unifa" unicode="&#xfa;" d="M167 774L260 918L420 918L334 774L167 774M340 170L337 696L496 696L496 81Q496 71 495 62Q494 53 491 45Q486 30 476 20Q466 10 452 5Q444 2 429.50 1Q415 0 405 0L103 0Q93 0 79 1Q65 2 57 5Q49 7 43 11Q37 15 32 20Q27 25 23.50 31.50Q20 38 17 45Q12 63 12 81L12 696L161 696L167 135L180 135L309 135L322 135L340 135L340 170Z"  horiz-adv-x="600" vert-adv-y="1024"  />

      
      <glyph glyph-name="unifb" unicode="&#xfb;" d="M168 760L118 822L251 920L389 824L343 760L252 827L168 760M340 170L337 696L496 696L496 81Q496 71 495 62Q494 53 491 45Q486 30 476 20Q466 10 452 5Q444 2 429.50 1Q415 0 405 0L103 0Q93 0 79 1Q65 2 57 5Q49 7 43 11Q37 15 32 20Q27 25 23.50 31.50Q20 38 17 45Q12 63 12 81L12 696L161 696L167 135L340 135L340 170Z"  horiz-adv-x="556" vert-adv-y="1024"  />

      
      <glyph glyph-name="unifc" unicode="&#xfc;" d="M164 752Q187 752 202.50 767.50Q218 783 218 806Q218 829 202.50 844.50Q187 860 164 860Q141 860 125.50 844.50Q110 829 110 806Q110 783 125.50 767.50Q141 752 164 752M341 752Q364 752 379.50 767.50Q395 783 395 806Q395 829 379.50 844.50Q364 860 341 860Q318 860 302.50 844.50Q287 829 287 806Q287 783 302.50 767.50Q318 752 341 752M340 170L337 696L496 696L496 81Q496 71 495 62Q494 53 491 45Q486 30 476 20Q466 10 452 5Q444 2 429.50 1Q415 0 405 0L103 0Q93 0 79 1Q65 2 57 5Q49 7 43 11Q37 15 32 20Q27 25 23.50 31.50Q20 38 17 45Q12 63 12 81L12 696L161 696L167 135L340 135L340 170Z"  horiz-adv-x="556" vert-adv-y="1024"  />

      
      <glyph glyph-name="unifd" unicode="&#xfd;" d="M174 774L267 918L427 918L341 774L174 774M335 234L316 0L142 0L181 232L0 696L176 696L258 444L352 696L541 696L335 234Z"  horiz-adv-x="600" vert-adv-y="1024"  />

      
      <glyph glyph-name="uniff" unicode="&#xff;" d="M166 752Q143 752 127.50 767.50Q112 783 112 806Q112 829 127.50 844.50Q143 860 166 860Q189 860 204.50 844.50Q220 829 220 806Q220 783 204.50 767.50Q189 752 166 752M343 752Q320 752 304.50 767.50Q289 783 289 806Q289 829 304.50 844.50Q320 860 343 860Q366 860 381.50 844.50Q397 829 397 806Q397 783 381.50 767.50Q366 752 343 752M335 234L316 0L142 0L181 232L0 696L176 696L258 444L352 696L541 696L335 234Z"  horiz-adv-x="600" vert-adv-y="1024"  />

      
      <glyph glyph-name="uni0132" unicode="&#x0132;" d="M186 0L12 0L12 696L185 696L186 0M238 213L394 213L394 135L488 135L488 696L642 696Q644 549 644.50 447.50Q645 346 645 280Q645 214 644.50 177.50Q644 141 644 123.50Q644 106 643.50 102Q643 98 643 97L643 81Q643 63 638 45Q635 38 631.50 31.50Q628 25 623 20Q618 15 612 11Q606 7 598 5Q590 2 581 1Q572 0 562 0L319 0Q309 0 299.50 1Q290 2 282 5Q269 10 258 20Q248 30 243 45Q240 53 239 62Q238 71 238 81L238 213Z"  horiz-adv-x="705" vert-adv-y="1024"  />

      
      <glyph glyph-name="uni0133" unicode="&#x0133;" d="M12 0L12 696L185 696L186 0L113 0L12 0M238 213L394 213L394 135L488 135L488 696L642 696Q644 549 644.50 447.50Q645 346 645 280Q645 214 644.50 177.50Q644 141 644 123.50Q644 106 643.50 102Q643 98 643 97L643 81Q643 63 638 45Q635 38 631.50 31.50Q628 25 623 20Q618 15 612 11Q606 7 598 5Q590 2 581 1Q572 0 562 0L319 0Q309 0 299.50 1Q290 2 282 5Q269 10 258 20Q248 30 243 45Q240 53 239 62Q238 71 238 81L238 213Z"  horiz-adv-x="705" vert-adv-y="1024"  />

      
      <glyph glyph-name="uni013F" unicode="&#x013F;" d="M166 696L167 140L369 140L368 0L12 0L12 696L166 696M314 322Q336 322 352 337.50Q368 353 368 376Q368 398 352 414Q336 430 314 430Q291 430 275.50 414Q260 398 260 376Q260 353 275.50 337.50Q291 322 314 322Z"  horiz-adv-x="429" vert-adv-y="1024"  />

      
      <glyph glyph-name="uni0140" unicode="&#x0140;" d="M166 696L167 140L369 140L368 0L12 0L12 696L166 696M314 322Q336 322 352 337.50Q368 353 368 376Q368 398 352 414Q336 430 314 430Q291 430 275.50 414Q260 398 260 376Q260 353 275.50 337.50Q291 322 314 322Z"  horiz-adv-x="429" vert-adv-y="1024"  />

      
      <glyph glyph-name="uni0152" unicode="&#x0152;" d="M730 640L730 560L498 560L498 426L711 426L711 310L498 310L498 135L730 135L730 0L93 0Q83 0 74 1Q65 2 57 5Q49 7 43 11Q37 15 32 20Q27 25 23.50 31.50Q20 38 17 45Q12 63 12 81L12 615Q12 633 17 651Q20 658 23.50 664.50Q27 671 32 676Q37 681 43 685Q49 689 57 691Q65 694 74 695Q83 696 93 696L730 696L730 640M167 560L167 135L181 135L200 135L322 135L340 135L340 560L167 560Z"  horiz-adv-x="790" vert-adv-y="1024"  />

      
      <glyph glyph-name="uni0153" unicode="&#x0153;" d="M730 640L730 560L498 560L498 426L711 426L711 310L498 310L498 135L730 135L730 0L93 0Q83 0 74 1Q65 2 57 5Q49 7 43 11Q37 15 32 20Q27 25 23.50 31.50Q20 38 17 45Q12 63 12 81L12 615Q12 633 17 651Q20 658 23.50 664.50Q27 671 32 676Q37 681 43 685Q49 689 57 691Q65 694 74 695Q83 696 93 696L730 696L730 640M167 560L167 135L181 135L200 135L322 135L340 135L340 560L167 560Z"  horiz-adv-x="790" vert-adv-y="1024"  />

      
      <glyph glyph-name="uni0174" unicode="&#x0174;" d="M250 760L200 822L333 920L471 824L425 760L334 827L250 760M666 696L595 0L449 0L333 310L208 0L73 0L12 696L177 696L209 351L286 600L383 600L460 348L504 696L666 696Z"  horiz-adv-x="726" vert-adv-y="1024"  />

      
      <glyph glyph-name="uni0175" unicode="&#x0175;" d="M250 760L200 822L333 920L471 824L425 760L334 827L250 760M666 696L595 0L449 0L333 310L208 0L73 0L12 696L177 696L209 351L286 600L383 600L460 348L504 696L666 696Z"  horiz-adv-x="600" vert-adv-y="1024"  />

      
      <glyph glyph-name="uni0176" unicode="&#x0176;" d="M127 822L260 920L398 824L352 760L261 827L177 760L127 822M335 234L316 0L142 0L181 232L0 696L176 696L258 444L352 696L541 696L335 234Z"  horiz-adv-x="600" vert-adv-y="1024"  />

      
      <glyph glyph-name="uni0177" unicode="&#x0177;" d="M127 822L260 920L398 824L352 760L261 827L177 760L127 822M335 234L316 0L142 0L181 232L0 696L176 696L258 444L352 696L541 696L335 234Z"  horiz-adv-x="600" vert-adv-y="1024"  />

      
      <glyph glyph-name="uni0178" unicode="&#x0178;" d="M166 752Q143 752 127.50 767.50Q112 783 112 806Q112 829 127.50 844.50Q143 860 166 860Q189 860 204.50 844.50Q220 829 220 806Q220 783 204.50 767.50Q189 752 166 752M343 752Q320 752 304.50 767.50Q289 783 289 806Q289 829 304.50 844.50Q320 860 343 860Q366 860 381.50 844.50Q397 829 397 806Q397 783 381.50 767.50Q366 752 343 752M335 234L316 0L142 0L181 232L0 696L176 696L258 444L352 696L541 696L335 234Z"  horiz-adv-x="600" vert-adv-y="1024"  />

      
      <glyph glyph-name="uni0391" unicode="&#x0391;" d="M191 116Q190 111 188 96Q186 81 183.50 62.50Q181 44 178.50 26.50Q176 9 174 0L12 0L12 2L165 696L342 696L495 2L495 0L333 0Q331 19 327 48.50Q323 78 317 116L191 116M213 232L294 232Q287 272 277 332.50Q267 393 254 472Q250 452 246 427Q242 402 237 372L213 232Z"  horiz-adv-x="545" vert-adv-y="1024"  />

      
      <glyph glyph-name="uni0392" unicode="&#x0392;" d="M14 0L12 696L354 696Q374 696 390 691.50Q406 687 420 672Q432 659 433.50 641.50Q435 624 435 612L435 490Q435 471 433.50 447Q432 423 412 407Q392 393 379 383.50Q366 374 353 366Q372 356 388.50 348.50Q405 341 417 328Q430 317 433.50 293Q437 269 437 255L437 82Q437 41 417 21Q399 0 356 0L14 0M166 560L166 425L282 425L282 560L166 560M166 135L281 135L282 309Q278 309 261 309Q244 309 224.50 309Q205 309 188 309Q171 309 166 309L166 135Z"  horiz-adv-x="497" vert-adv-y="1024"  />

      
      <glyph glyph-name="uni0393" unicode="&#x0393;" d="M533 556L166 556L166 0L12 0L12 696L533 696L533 556Z"  horiz-adv-x="563" vert-adv-y="1024"  />

      
      <glyph glyph-name="uni0394" unicode="&#x0394;" d="M180 0L0 0L160 696L370 696L530 0L359 0L270 426L180 0M332 131L207 129L180 0L359 0L332 131Z"  horiz-adv-x="600" vert-adv-y="1024"  />

      
      <glyph glyph-name="uni0395" unicode="&#x0395;" d="M12 696L399 696L399 640L399 560L167 560L167 426L380 426L380 310L167 310L167 135L399 135L399 0L12 0L12 696Z"  horiz-adv-x="459" vert-adv-y="1024"  />

      
      <glyph glyph-name="uni0396" unicode="&#x0396;" d="M401 696L223 140L394 140L392 0L189 0L139 0L68 0L49 0L23 0L199 561L22 560L23 696L271 696L401 696Z"  horiz-adv-x="424" vert-adv-y="1024"  />

      
      <glyph glyph-name="uni0397" unicode="&#x0397;" d="M378 289L165 289L165 0L12 0L12 696L165 696L165 426L378 426L378 696L534 696L532 0L378 0L378 289Z"  horiz-adv-x="594" vert-adv-y="1024"  />

      
      <glyph glyph-name="uni0398" unicode="&#x0398;" d="M491 651Q496 633 496 615L496 81Q496 63 491 45Q488 38 484.50 31.50Q481 25 476 20Q471 15 465 11Q459 7 451 5Q443 2 434 1Q425 0 415 0L93 0Q83 0 74 1Q65 2 57 5Q49 7 43 11Q37 15 32 20Q27 25 23.50 31.50Q20 38 17 45Q12 63 12 81L12 615Q12 633 17 651Q20 658 23.50 664.50Q27 671 32 676Q37 681 43 685Q49 689 57 691Q65 694 74 695Q83 696 93 696L415 696Q425 696 434 695Q443 694 451 691Q459 689 465 685Q471 681 476 676Q481 671 484.50 664.50Q488 658 491 651M340 135L340 560L167 560L167 135L181 135L200 135L322 135L340 135M342 428L164 428L166 276L342 276L342 428Z"  horiz-adv-x="556" vert-adv-y="1024"  />

      
      <glyph glyph-name="uni0399" unicode="&#x0399;" d="M186 0L12 0L12 696L185 696L186 0Z"  horiz-adv-x="226" vert-adv-y="1024"  />

      
      <glyph glyph-name="uni039A" unicode="&#x039A;" d="M282 0L165 275L165 0L12 0L12 696L166 696L165 442L263 696L417 696L417 690L282 367L437 1Q437-1 434-1Q431-1 429 0Q422 1 422 0L282 0Z"  horiz-adv-x="497" vert-adv-y="1024"  />

      
      <glyph glyph-name="uni039B" unicode="&#x039B;" d="M180 0L0 0L160 696L370 696L530 0L360 0L270 426L180 0Z"  horiz-adv-x="600" vert-adv-y="1024"  />

      
      <glyph glyph-name="uni039C" unicode="&#x039C;" d="M388 696L534 696L534 0Q507 0 488 0Q469 0 454 0Q439 0 426 0Q413 0 399 0L399 348L322 96L225 96L148 345L148 0Q119 0 98.50 0Q78 0 62.50 0Q47 0 35.50 0Q24 0 12 0L12 696L147 696L272 386L388 696Z"  horiz-adv-x="594" vert-adv-y="1024"  />

      
      <glyph glyph-name="uni039D" unicode="&#x039D;" d="M396 329L396 696L551 696L551 0L416 0L181 368L181 0L30 0L30 696L164 696L396 329Z"  horiz-adv-x="611" vert-adv-y="1024"  />

      
      <glyph glyph-name="uni039E" unicode="&#x039E;" d="M501 560L12 560L12 696L501 696L501 560M477 277L36 277L36 413L477 413L477 277M501 0L12 0L12 136L501 136L501 0Z"  horiz-adv-x="561" vert-adv-y="1024"  />

      
      <glyph glyph-name="uni039F" unicode="&#x039F;" d="M491 651Q496 633 496 615L496 81Q496 63 491 45Q488 38 484.50 31.50Q481 25 476 20Q471 15 465 11Q459 7 451 5Q443 2 434 1Q425 0 415 0L93 0Q83 0 74 1Q65 2 57 5Q49 7 43 11Q37 15 32 20Q27 25 23.50 31.50Q20 38 17 45Q12 63 12 81L12 615Q12 633 17 651Q20 658 23.50 664.50Q27 671 32 676Q37 681 43 685Q49 689 57 691Q65 694 74 695Q83 696 93 696L415 696Q425 696 434 695Q443 694 451 691Q459 689 465 685Q471 681 476 676Q481 671 484.50 664.50Q488 658 491 651M340 135L340 560L167 560L167 135L181 135L200 135L322 135L340 135Z"  horiz-adv-x="556" vert-adv-y="1024"  />

      
      <glyph glyph-name="uni03A0" unicode="&#x03A0;" d="M543 561L543 0L391 0L391 560L175 560L175-2L20-2L20 696L544 696L544 561L543 561Z"  horiz-adv-x="600" vert-adv-y="1024"  />

      
      <glyph glyph-name="uni03A1" unicode="&#x03A1;" d="M167 132L167 0L104 0L12 0L12 696L365 696Q386 696 402 695Q418 694 428 683Q450 664 450 623L450 309Q450 269 428 247Q405 227 364 227L281 227L167 227L167 132M167 560L167 348L303 348L303 560L167 560Z"  horiz-adv-x="510" vert-adv-y="1024"  />

      
      <glyph glyph-name="uni03A3" unicode="&#x03A3;" d="M29 696L180 696L279 359L158 0L12 0L12 6L137 360L29 694L29 696M499 696L180 696L220 560L499 560L499 696M502 136L204 136L158 0L502 0L502 136Z"  horiz-adv-x="600" vert-adv-y="1024"  />

      
      <glyph glyph-name="uni03A4" unicode="&#x03A4;" d="M284 0L183 0L183 234L183 560L12 560L12 618L12 696L531 696L531 641L531 560L357 560L357 328L357 0L284 0Z"  horiz-adv-x="571" vert-adv-y="1024"  />

      
      <glyph glyph-name="uni03A5" unicode="&#x03A5;" d="M335 234L316 0L142 0L181 232L0 696L176 696L258 444L352 696L541 696L335 234Z"  horiz-adv-x="600" vert-adv-y="1024"  />

      
      <glyph glyph-name="uni03A6" unicode="&#x03A6;" d="M532 651Q537 633 537 615L537 81Q537 63 532 45Q529 38 525.50 31.50Q522 25 517 20Q512 15 506 11Q500 7 492 5Q484 2 475 1Q466 0 456 0L347 0L347-66L264-66L264 0L134 0Q124 0 115 1Q106 2 98 5Q90 7 84 11Q78 15 73 20Q68 25 64.50 31.50Q61 38 58 45Q53 63 53 81L53 615Q53 633 58 651Q61 658 64.50 664.50Q68 671 73 676Q78 681 84 685Q90 689 98 691Q106 694 115 695Q124 696 134 696L256 696L256 762L339 762L339 696L456 696Q466 696 475 695Q484 694 492 691Q500 689 506 685Q512 681 517 676Q522 671 525.50 664.50Q529 658 532 651M208 560L208 135L381 135L381 560L208 560Z"  horiz-adv-x="600" vert-adv-y="1024"  />

      
      <glyph glyph-name="uni03A7" unicode="&#x03A7;" d="M487 0L336 0L253 266L158 0L12 0L12 6L137 360L29 690L29 696L180 696L250 426L250 425L332 696L469 696L469 690L362 360L487 6L487 0Z"  horiz-adv-x="527" vert-adv-y="1024"  />

      
      <glyph glyph-name="uni03A8" unicode="&#x03A8;" d="M537 242Q537 232 536 223Q535 214 532 206Q527 191 517 181Q507 171 493 166Q485 163 475.50 162Q466 161 456 161L335 161L336 0L211 0L211 161L93 161Q83 161 74 162Q65 163 57 166Q49 168 43 172Q37 176 32 181Q27 186 23.50 192.50Q20 199 17 206Q12 224 12 242L12 696L161 696L167 296L210 296L207 696L334 696L336 296L381 296L378 696L537 696L537 242Z"  horiz-adv-x="600" vert-adv-y="1024"  />

      
      <glyph glyph-name="uni03A9" unicode="&#x03A9;" d="M412 0L415 526L415 561L242 561L236 0L12 0L12 138L87 138L87 615Q87 633 92 651Q95 658 98.50 664.50Q102 671 107 676Q112 681 118 685Q124 689 132 691Q140 694 149 695Q158 696 168 696L490 696Q500 696 509.50 695Q519 694 527 691Q541 687 551 676Q561 666 566 651Q569 643 570 634Q571 625 571 615L571 138L655 138L656 0L412 0Z"  horiz-adv-x="706" vert-adv-y="1024"  />

      
      <glyph glyph-name="uni03B1" unicode="&#x03B1;" d="M191 116Q190 111 188 96Q186 81 183.50 62.50Q181 44 178.50 26.50Q176 9 174 0L12 0L12 2L165 696L342 696L495 2L495 0L333 0Q331 19 327 48.50Q323 78 317 116L191 116M213 232L294 232Q287 272 277 332.50Q267 393 254 472Q250 452 246 427Q242 402 237 372L213 232Z"  horiz-adv-x="545" vert-adv-y="1024"  />

      
      <glyph glyph-name="uni03B2" unicode="&#x03B2;" d="M14 0L12 696L354 696Q374 696 390 691.50Q406 687 420 672Q432 659 433.50 641.50Q435 624 435 612L435 490Q435 471 433.50 447Q432 423 412 407Q392 393 379 383.50Q366 374 353 366Q372 356 388.50 348.50Q405 341 417 328Q430 317 433.50 293Q437 269 437 255L437 82Q437 41 417 21Q399 0 356 0L14 0M166 560L166 425L282 425L282 560L166 560M166 135L281 135L282 309Q278 309 261 309Q244 309 224.50 309Q205 309 188 309Q171 309 166 309L166 135Z"  horiz-adv-x="497" vert-adv-y="1024"  />

      
      <glyph glyph-name="uni03B3" unicode="&#x03B3;" d="M533 556L166 556L166 0L12 0L12 696L533 696L533 556Z"  horiz-adv-x="563" vert-adv-y="1024"  />

      
      <glyph glyph-name="uni03B4" unicode="&#x03B4;" d="M190 0L0 0L160 696L370 696L530 0L350 0L270 416L190 0M325 131L215 131L190 0L350 0L325 131Z"  horiz-adv-x="600" vert-adv-y="1024"  />

      
      <glyph glyph-name="uni03B5" unicode="&#x03B5;" d="M12 696L399 696L399 640L399 560L167 560L167 426L380 426L380 310L167 310L167 135L399 135L399 0L12 0L12 696Z"  horiz-adv-x="459" vert-adv-y="1024"  />

      
      <glyph glyph-name="uni03B6" unicode="&#x03B6;" d="M401 696L223 140L394 140L392 0L23 0L199 561L22 560L23 696L401 696Z"  horiz-adv-x="505" vert-adv-y="1024"  />

      
      <glyph glyph-name="uni03B7" unicode="&#x03B7;" d="M378 289L165 289L165 0L12 0L12 696L165 696L165 426L378 426L378 696L534 696L532 0L378 0L378 289Z"  horiz-adv-x="594" vert-adv-y="1024"  />

      
      <glyph glyph-name="uni03B8" unicode="&#x03B8;" d="M491 651Q496 633 496 615L496 81Q496 63 491 45Q488 38 484.50 31.50Q481 25 476 20Q471 15 465 11Q459 7 451 5Q443 2 434 1Q425 0 415 0L93 0Q83 0 74 1Q65 2 57 5Q49 7 43 11Q37 15 32 20Q27 25 23.50 31.50Q20 38 17 45Q12 63 12 81L12 615Q12 633 17 651Q20 658 23.50 664.50Q27 671 32 676Q37 681 43 685Q49 689 57 691Q65 694 74 695Q83 696 93 696L415 696Q425 696 434 695Q443 694 451 691Q459 689 465 685Q471 681 476 676Q481 671 484.50 664.50Q488 658 491 651M340 135L340 560L167 560L167 135L181 135L200 135L322 135L340 135M342 428L164 428L166 276L342 276L342 428Z"  horiz-adv-x="600" vert-adv-y="1024"  />

      
      <glyph glyph-name="uni03B9" unicode="&#x03B9;" d="M186 0L12 0L12 696L185 696L186 0Z"  horiz-adv-x="226" vert-adv-y="1024"  />

      
      <glyph glyph-name="uni03BA" unicode="&#x03BA;" d="M282 0L165 275L165 0L12 0L12 696L166 696L165 442L263 696L417 696L417 690L282 367L437 1Q437-1 434-1Q431-1 429 0Q422 1 422 0L282 0Z"  horiz-adv-x="497" vert-adv-y="1024"  />

      
      <glyph glyph-name="uni03BB" unicode="&#x03BB;" d="M190 0L0 0L160 696L370 696L530 0L350 0L270 416L190 0Z"  horiz-adv-x="600" vert-adv-y="1024"  />

      
      <glyph glyph-name="uni03BC" unicode="&#x03BC;" d="M388 696L534 696L534 0Q507 0 488 0Q469 0 454 0Q439 0 426 0Q413 0 399 0L399 348L322 96L225 96L148 345L148 0Q119 0 98.50 0Q78 0 62.50 0Q47 0 35.50 0Q24 0 12 0L12 696L147 696L272 386L388 696Z"  horiz-adv-x="594" vert-adv-y="1024"  />

      
      <glyph glyph-name="uni03BD" unicode="&#x03BD;" d="M396 329L396 696L551 696L551 0L416 0L181 368L181 0L30 0L30 696L164 696L396 329Z"  horiz-adv-x="611" vert-adv-y="1024"  />

      
      <glyph glyph-name="uni03BE" unicode="&#x03BE;" d="M501 560L12 560L12 696L501 696L501 560M477 277L36 277L36 413L477 413L477 277M501 0L12 0L12 136L501 136L501 0Z"  horiz-adv-x="600" vert-adv-y="1024"  />

      
      <glyph glyph-name="uni03BF" unicode="&#x03BF;" d="M491 651Q496 633 496 615L496 81Q496 63 491 45Q488 38 484.50 31.50Q481 25 476 20Q471 15 465 11Q459 7 451 5Q443 2 434 1Q425 0 415 0L93 0Q83 0 74 1Q65 2 57 5Q49 7 43 11Q37 15 32 20Q27 25 23.50 31.50Q20 38 17 45Q12 63 12 81L12 615Q12 633 17 651Q20 658 23.50 664.50Q27 671 32 676Q37 681 43 685Q49 689 57 691Q65 694 74 695Q83 696 93 696L415 696Q425 696 434 695Q443 694 451 691Q459 689 465 685Q471 681 476 676Q481 671 484.50 664.50Q488 658 491 651M340 135L340 560L167 560L167 135L181 135L200 135L322 135L340 135Z"  horiz-adv-x="556" vert-adv-y="1024"  />

      
      <glyph glyph-name="uni03C0" unicode="&#x03C0;" d="M544 561L543 561L543 0L391 0L391 560L175 560L175-2L20-2L20 279L20 561L20 696L543 696L544 696L544 561Z"  horiz-adv-x="600" vert-adv-y="1024"  />

      
      <glyph glyph-name="uni03C1" unicode="&#x03C1;" d="M167 132L167 0L104 0L12 0L12 696L365 696Q386 696 402 695Q418 694 428 683Q450 664 450 623L450 309Q450 269 428 247Q405 227 364 227L281 227L167 227L167 132M167 560L167 348L303 348L303 560L167 560Z"  horiz-adv-x="510" vert-adv-y="1024"  />

      
      <glyph glyph-name="uni03C2" unicode="&#x03C2;" d="M29 696L180 696L279 359L158 0L12 0L12 6L137 360L29 694L29 696M499 696L180 696L220 560L499 560L499 696M502 136L204 136L158 0L502 0L502 136Z"  horiz-adv-x="600" vert-adv-y="1024"  />

      
      <glyph glyph-name="uni03C4" unicode="&#x03C4;" d="M284 0L183 0L183 234L183 560L12 560L12 618L12 696L531 696L531 641L531 560L357 560L357 328L357 0L284 0Z"  horiz-adv-x="571" vert-adv-y="1024"  />

      
      <glyph glyph-name="uni03C5" unicode="&#x03C5;" d="M335 234L316 0L142 0L181 232L0 696L176 696L258 444L352 696L541 696L335 234Z"  horiz-adv-x="600" vert-adv-y="1024"  />

      
      <glyph glyph-name="uni03C6" unicode="&#x03C6;" d="M532 651Q537 633 537 615L537 81Q537 63 532 45Q529 38 525.50 31.50Q522 25 517 20Q512 15 506 11Q500 7 492 5Q484 2 475 1Q466 0 456 0L347 0L347-66L264-66L264 0L134 0Q124 0 115 1Q106 2 98 5Q90 7 84 11Q78 15 73 20Q68 25 64.50 31.50Q61 38 58 45Q53 63 53 81L53 615Q53 633 58 651Q61 658 64.50 664.50Q68 671 73 676Q78 681 84 685Q90 689 98 691Q106 694 115 695Q124 696 134 696L256 696L256 762L339 762L339 696L456 696Q466 696 475 695Q484 694 492 691Q500 689 506 685Q512 681 517 676Q522 671 525.50 664.50Q529 658 532 651M208 560L208 135L381 135L381 560L208 560Z"  horiz-adv-x="600" vert-adv-y="1024"  />

      
      <glyph glyph-name="uni03C7" unicode="&#x03C7;" d="M487 0L336 0L253 266L158 0L12 0L12 6L137 360L29 690L29 696L180 696L250 426L250 425L332 696L469 696L469 690L362 360L487 6L487 0Z"  horiz-adv-x="527" vert-adv-y="1024"  />

      
      <glyph glyph-name="uni03C8" unicode="&#x03C8;" d="M537 242Q537 232 536 223Q535 214 532 206Q527 191 517 181Q507 171 493 166Q485 163 475.50 162Q466 161 456 161L335 161L336 0L211 0L211 161L93 161Q83 161 74 162Q65 163 57 166Q49 168 43 172Q37 176 32 181Q27 186 23.50 192.50Q20 199 17 206Q12 224 12 242L12 696L161 696L167 296L210 296L207 696L334 696L336 296L381 296L381 331L378 696L537 696L537 242Z"  horiz-adv-x="600" vert-adv-y="1024"  />

      
      <glyph glyph-name="uni03C9" unicode="&#x03C9;" d="M571 0L412 0L415 526L415 561L397 561L384 561L255 561L242 561L236 0L87 0L12 0L12 138L87 138L87 599L87 615Q87 633 92 651Q95 658 98.50 664.50Q102 671 107 676Q112 681 118 685Q124 689 132 691Q140 694 149 695Q158 696 168 696L185 696L191 696L490 696Q500 696 509.50 695Q519 694 527 691Q541 687 551 676Q561 666 566 651Q569 643 570 634Q571 625 571 615L571 138L655 138L656 0L571 0Z"  horiz-adv-x="600" vert-adv-y="1024"  />

      
      <glyph glyph-name="uni0401" unicode="&#x0401;" d="M110 752Q133 752 148.50 767.50Q164 783 164 806Q164 829 148.50 844.50Q133 860 110 860Q87 860 71.50 844.50Q56 829 56 806Q56 783 71.50 767.50Q87 752 110 752M287 752Q310 752 325.50 767.50Q341 783 341 806Q341 829 325.50 844.50Q310 860 287 860Q264 860 248.50 844.50Q233 829 233 806Q233 783 248.50 767.50Q264 752 287 752M12 696L399 696L399 640L399 560L167 560L167 426L380 426L380 310L167 310L167 135L399 135L399 0L12 0L12 696Z"  horiz-adv-x="459" vert-adv-y="1024"  />

      
      <glyph glyph-name="uni0410" unicode="&#x0410;" d="M191 116Q190 111 188 96Q186 81 183.50 62.50Q181 44 178.50 26.50Q176 9 174 0L12 0L12 2L165 696L342 696L495 2L495 0L333 0Q331 19 327 48.50Q323 78 317 116L191 116M213 232L294 232Q287 272 277 332.50Q267 393 254 472Q250 452 246 427Q242 402 237 372L213 232Z"  horiz-adv-x="545" vert-adv-y="1024"  />

      
      <glyph glyph-name="uni0411" unicode="&#x0411;" d="M424 453Q445 432 445 392L445 82Q445 61 440 46Q435 31 425 20Q402 0 362 0L12 0L12 696L339 696L339 619L166 619L166 473L361 473Q404 473 424 453M281 137L281 349L166 349L166 137L281 137Z"  horiz-adv-x="505" vert-adv-y="1024"  />

      
      <glyph glyph-name="uni0412" unicode="&#x0412;" d="M14 0L12 696L354 696Q374 696 390 691.50Q406 687 420 672Q432 659 433.50 641.50Q435 624 435 612L435 490Q435 471 433.50 447Q432 423 412 407Q392 393 379 383.50Q366 374 353 366Q372 356 388.50 348.50Q405 341 417 328Q430 317 433.50 293Q437 269 437 255L437 134L437 119L437 109L437 82Q437 41 417 21Q399 0 356 0L214 0L14 0M166 425L199 425L282 425L282 454L282 507L282 560L166 560L166 515L166 425M166 135L215 135L281 135Q281 149 281 167Q281 185 282 207L282 309Q264 308 234 309L201 309L166 309L166 276L166 236L166 135Z"  horiz-adv-x="497" vert-adv-y="1024"  />

      
      <glyph glyph-name="uni0413" unicode="&#x0413;" d="M533 556L166 556L166 0L12 0L12 696L533 696L533 556Z"  horiz-adv-x="563" vert-adv-y="1024"  />

      
      <glyph glyph-name="uni0414" unicode="&#x0414;" d="M123 696L492 696L492-41L337-41L337 0L162 0L162-41L12-41L12 0L220 560L123 560L123 696M186 56L336 56L337 481L186 56Z"  horiz-adv-x="552" vert-adv-y="1024"  />

      
      <glyph glyph-name="uni0415" unicode="&#x0415;" d="M12 696L399 696L399 640L399 560L167 560L167 426L380 426L380 310L167 310L167 135L399 135L399 0L12 0L12 696Z"  horiz-adv-x="459" vert-adv-y="1024"  />

      
      <glyph glyph-name="uni0416" unicode="&#x0416;" d="M684 690L549 367L704 1Q704-2 696 0Q689 1 689 0L549 0L437 260L437 0L279 0L279 260L166 0L27 0Q27 2 19 0Q18-1 15-1Q12-1 12 1L166 367L31 690L31 696L186 696L279 458L279 696L437 696L437 458L530 696L684 696L684 690Z"  horiz-adv-x="744" vert-adv-y="1024"  />

      
      <glyph glyph-name="uni0417" unicode="&#x0417;" d="M471 360L496 335L496 81Q496 63 491 45Q488 38 484.50 31.50Q481 25 476 20Q471 15 465 11Q459 7 451 5Q443 2 429 1Q415 0 405 0L102 0Q92 0 78 1Q64 2 56 5Q43 10 32 20Q22 30 17 45Q14 53 13 62Q12 71 12 81L12 213L168 213L168 135L341 135L341 291L175 291L175 424L341 424L341 560L168 560L168 483L12 483L12 615Q12 625 13 634Q14 643 17 651Q22 666 32 676Q43 687 56 691Q64 694 77 695Q90 696 100 696L408 696Q418 696 430.50 695Q443 694 451 691Q459 689 465 685Q471 681 476 676Q481 671 484.50 664.50Q488 658 491 651Q496 633 496 615L496 386L471 360Z"  horiz-adv-x="556" vert-adv-y="1024"  />

      
      <glyph glyph-name="uni0418" unicode="&#x0418;" d="M12 696L166 696L166 329L399 696L533 696L533 0L382 0L382 368L147 0L12 0L12 696Z"  horiz-adv-x="600" vert-adv-y="1024"  />

      
      <glyph glyph-name="uni0419" unicode="&#x0419;" d="M230 724Q230 725 229 726Q226 730 222.50 735Q219 740 215 745L197 771L247 771Q248 770 248.50 769Q249 768 250 767Q251 766 253 762L345 762Q345 762 347 766Q350 769 351 771L400 771Q399 769 397 766.50Q395 764 393 760Q389 755 383 746Q377 737 369 726Q369 725 366 722Q364 720 362 720Q359 720 359 718L240 718Q238 720 235 720Q234 720 232 722L230 724M30 696L185 696L185 329L417 696L551 696L551 0L400 0L400 368L165 0L30 0L30 696Z"  horiz-adv-x="600" vert-adv-y="1024"  />

      
      <glyph glyph-name="uni041A" unicode="&#x041A;" d="M282 0L165 275L165 0L12 0L12 696L166 696Q167 653 166.50 616Q166 579 165 547Q164 484 165 442L263 696L417 696L417 690L282 367L437 1Q437-1 434-1Q431-1 429 0Q422 1 422 0L282 0Z"  horiz-adv-x="497" vert-adv-y="1024"  />

      
      <glyph glyph-name="uni041B" unicode="&#x041B;" d="M35 0L239 560L144 560L144 696L508 696L509 696L508 0L357 0L357 487L188 0L35 0Z"  horiz-adv-x="600" vert-adv-y="1024"  />

      
      <glyph glyph-name="uni041C" unicode="&#x041C;" d="M388 696L534 696L534 0Q507 0 488 0Q469 0 454 0Q439 0 426 0Q413 0 399 0L399 348L322 96L225 96L148 345L148 0Q119 0 98.50 0Q78 0 62.50 0Q47 0 35.50 0Q24 0 12 0L12 696L147 696L272 386L388 696Z"  horiz-adv-x="594" vert-adv-y="1024"  />

      
      <glyph glyph-name="uni041D" unicode="&#x041D;" d="M378 289L165 289L165 0L12 0L12 696L165 696L165 426L378 426L378 696L534 696L532 0L378 0L378 289Z"  horiz-adv-x="594" vert-adv-y="1024"  />

      
      <glyph glyph-name="uni041E" unicode="&#x041E;" d="M491 651Q496 633 496 615L496 81Q496 63 491 45Q488 38 484.50 31.50Q481 25 476 20Q471 15 465 11Q459 7 451 5Q443 2 434 1Q425 0 415 0L93 0Q83 0 74 1Q65 2 57 5Q49 7 43 11Q37 15 32 20Q27 25 23.50 31.50Q20 38 17 45Q12 63 12 81L12 615Q12 633 17 651Q20 658 23.50 664.50Q27 671 32 676Q37 681 43 685Q49 689 57 691Q65 694 74 695Q83 696 93 696L415 696Q425 696 434 695Q443 694 451 691Q459 689 465 685Q471 681 476 676Q481 671 484.50 664.50Q488 658 491 651M340 135L340 560L167 560L167 135L181 135L200 135L322 135L340 135Z"  horiz-adv-x="556" vert-adv-y="1024"  />

      
      <glyph glyph-name="uni041F" unicode="&#x041F;" d="M543 561L543 0L391 0L391 560L175 560L175-2L20-2L20 696L544 696L544 561L543 561Z"  horiz-adv-x="600" vert-adv-y="1024"  />

      
      <glyph glyph-name="uni0420" unicode="&#x0420;" d="M167 227L167 0L12 0L12 696L365 696Q386 696 402 695Q418 694 428 683Q450 664 450 623L450 309Q450 269 428 247Q405 227 364 227L167 227M303 560L167 560L167 348L303 348L303 560Z"  horiz-adv-x="510" vert-adv-y="1024"  />

      
      <glyph glyph-name="uni0421" unicode="&#x0421;" d="M370 135L370 213L526 213L526 81Q526 71 525 62Q524 53 521 45Q516 30 506 20Q496 10 482 5Q474 2 464.50 1Q455 0 445 0L123 0Q113 0 104 1Q95 2 87 5Q79 7 73 11Q67 15 62 20Q57 25 53.50 31.50Q50 38 47 45Q42 63 42 81L42 615Q42 633 47 651Q50 658 53.50 664.50Q57 671 62 676Q67 681 73 685Q79 689 87 691Q95 694 104 695Q113 696 123 696L445 696Q455 696 464.50 695Q474 694 482 691Q496 687 506 676Q516 666 521 651Q524 643 525 634Q526 625 526 615L526 483L370 483L370 560L197 560L197 135L370 135Z"  horiz-adv-x="586" vert-adv-y="1024"  />

      
      <glyph glyph-name="uni0422" unicode="&#x0422;" d="M284 0L183 0L183 234L183 560L12 560L12 618L12 696L531 696L531 641L531 560L357 560L357 328L357 0L284 0Z"  horiz-adv-x="571" vert-adv-y="1024"  />

      
      <glyph glyph-name="uni0423" unicode="&#x0423;" d="M335 234L316 0L142 0L181 232L0 696L176 696L258 444L352 696L541 696L335 234Z"  horiz-adv-x="601" vert-adv-y="1024"  />

      
      <glyph glyph-name="uni0424" unicode="&#x0424;" d="M491 651Q496 633 496 615L496 81Q496 63 491 45Q488 38 484.50 31.50Q481 25 476 20Q471 15 465 11Q459 7 451 5Q443 2 434 1Q425 0 415 0L306 0L306-66L223-66L223 0L93 0Q83 0 74 1Q65 2 57 5Q49 7 43 11Q37 15 32 20Q27 25 23.50 31.50Q20 38 17 45Q12 63 12 81L12 615Q12 633 17 651Q20 658 23.50 664.50Q27 671 32 676Q37 681 43 685Q49 689 57 691Q65 694 74 695Q83 696 93 696L215 696L215 762L298 762L298 696L415 696Q425 696 434 695Q443 694 451 691Q459 689 465 685Q471 681 476 676Q481 671 484.50 664.50Q488 658 491 651M167 560L167 135L340 135L340 560L167 560Z"  horiz-adv-x="559" vert-adv-y="1024"  />

      
      <glyph glyph-name="uni0425" unicode="&#x0425;" d="M487 0L336 0L253 266L158 0L12 0L12 6L137 360L29 690L29 696L180 696L250 426L250 425L332 696L469 696L469 690L362 360L487 6L487 0Z"  horiz-adv-x="527" vert-adv-y="1024"  />

      
      <glyph glyph-name="uni0426" unicode="&#x0426;" d="M12 0L14 696L168 696L168 132L380 132L380 696L534 696L534 111L611 111L611-43Q611-68 599-80Q575-101 533-101Q529-101 529-52Q529-3 528 0L12 0Z"  horiz-adv-x="671" vert-adv-y="1024"  />

      
      <glyph glyph-name="uni0427" unicode="&#x0427;" d="M14 283Q14 374 13 437.50Q12 501 11.50 543Q11 585 11.50 609.50Q12 634 13 647.50Q14 661 17 666.50Q20 672 24 676Q47 696 87 696L167 696Q167 689 167 682.50Q167 676 166 669L166 347L302 347L302 696L456 696L456 0L302 0L302 223L88 223Q55 222 34.50 240Q14 258 14 283Z"  horiz-adv-x="516" vert-adv-y="1024"  />

      
      <glyph glyph-name="uni0428" unicode="&#x0428;" d="M403 696L558 696L559 0L13 0L13 696L169 696L169 136L228 136L228 331L344 331Q344 314 344 294Q344 274 343 250L343 136L403 136L403 696Z"  horiz-adv-x="600" vert-adv-y="1024"  />

      
      <glyph glyph-name="uni0429" unicode="&#x0429;" d="M558 696L558 117L636 117L636-39Q636-63 624-75Q603-96 558-96L539-96L539 0L13 0L13 696L169 696L169 136L228 136L228 331L344 331Q344 314 344 294Q344 274 343 250L343 136L403 136L403 696L558 696Z"  horiz-adv-x="686" vert-adv-y="1024"  />

      
      <glyph glyph-name="uni042A" unicode="&#x042A;" d="M152 560L12 560L12 696L152 696L152 560M564 453Q585 432 585 392L585 82Q585 61 580 46Q575 31 565 20Q542 0 502 0L152 0L152 560L153 560L153 696L306 696L306 473L501 473Q544 473 564 453M306 349L306 137L421 137L421 349L306 349Z"  horiz-adv-x="645" vert-adv-y="1024"  />

      
      <glyph glyph-name="uni042B" unicode="&#x042B;" d="M424 453Q445 432 445 392L445 82Q445 61 440 46Q435 31 425 20Q402 0 362 0L12 0L12 696L166 696L166 473L361 473Q404 473 424 453M670 696L511 696L511 0L670 0L670 696M281 137L281 349L166 349L166 137L281 137Z"  horiz-adv-x="730" vert-adv-y="1024"  />

      
      <glyph glyph-name="uni042C" unicode="&#x042C;" d="M424 453Q445 432 445 392L445 82Q445 61 440 46Q435 31 425 20Q402 0 362 0L12 0L12 696L166 696L166 473L361 473Q404 473 424 453M281 137L281 349L166 349L166 137L281 137Z"  horiz-adv-x="505" vert-adv-y="1024"  />

      
      <glyph glyph-name="uni042D" unicode="&#x042D;" d="M521 651Q526 633 526 615Q526 608 526 564Q526 520 525.50 457.50Q525 395 524.50 324Q524 253 523.50 192Q523 131 522.50 89.50Q522 48 521 45Q518 38 514.50 31.50Q511 25 506 20Q501 15 495 11Q489 7 481 5Q473 2 464 1Q455 0 445 0L123 0Q113 0 103.50 1Q94 2 86 5Q73 10 62 20Q52 30 47 45Q44 53 43 62Q42 71 42 81L42 213L198 213L198 135L371 135L371 283L126 283L126 416L371 416L371 560L198 560L198 483L42 483L42 615Q42 625 43 634Q44 643 47 651Q52 666 62 676Q73 687 86 691Q94 694 103.50 695Q113 696 123 696L445 696Q455 696 464 695Q473 694 481 691Q489 689 495 685Q501 681 506 676Q511 671 514.50 664.50Q518 658 521 651Z"  horiz-adv-x="600" vert-adv-y="1024"  />

      
      <glyph glyph-name="uni042E" unicode="&#x042E;" d="M692 677Q701 665 705 652Q708 644 709 635Q710 626 710 616L710 81Q710 71 709 62Q708 53 705 46Q703 38 699.50 31.50Q696 25 692 20Q681 9 666 5L332 0L316 0Q306 0 297 1Q288 2 280 5Q265 10 255 20Q251 25 247 31.50Q243 38 241 46Q238 53 237 62Q236 71 236 81L236 284L165 284L165 0L12 0L12 696L165 696L165 420L236 420L236 616Q236 626 237 635Q238 644 241 652Q243 659 247 665.50Q251 672 255 677Q260 682 266.50 685.50Q273 689 280 691Q288 694 297 695Q306 696 316 696L631 696Q655 696 666 691Q683 687 692 677M376 131L568 131L568 560L376 560L376 131Z"  horiz-adv-x="770" vert-adv-y="1024"  />

      
      <glyph glyph-name="uni042F" unicode="&#x042F;" d="M455 696L448 0L295 0L295 259L178 0L12 0L12 7L145 298L116 298Q73 298 54 317Q44 328 39 343Q34 358 34 379L34 623Q34 665 57 684Q68 694 83 695Q98 696 116 696L455 696M177 387L312 387L312 560L177 560L177 387Z"  horiz-adv-x="515" vert-adv-y="1024"  />

      
      <glyph glyph-name="uni0430" unicode="&#x0430;" d="M191 116Q190 111 188 96Q186 81 183.50 62.50Q181 44 178.50 26.50Q176 9 174 0L12 0L12 2L165 696L342 696L495 2L495 0L333 0Q331 19 327 48.50Q323 78 317 116L191 116M213 232L294 232Q287 272 277 332.50Q267 393 254 472Q250 452 246 427Q242 402 237 372L213 232Z"  horiz-adv-x="545" vert-adv-y="1024"  />

      
      <glyph glyph-name="uni0431" unicode="&#x0431;" d="M424 453Q445 432 445 392L445 82Q445 61 440 46Q435 31 425 20Q402 0 362 0L12 0L12 696L339 696L339 619L166 619L166 473L361 473Q404 473 424 453M281 137L281 349L166 349L166 137L281 137Z"  horiz-adv-x="505" vert-adv-y="1024"  />

      
      <glyph glyph-name="uni0432" unicode="&#x0432;" d="M14 0L12 696L354 696Q374 696 390 691.50Q406 687 420 672Q432 659 433.50 641.50Q435 624 435 612L435 490Q435 471 433.50 447Q432 423 412 407Q392 393 379 383.50Q366 374 353 366Q372 356 388.50 348.50Q405 341 417 328Q430 317 433.50 293Q437 269 437 255L437 82Q437 41 417 21Q399 0 356 0L14 0M166 560L166 425L282 425L282 560L166 560M166 309L166 135L281 135L282 309Q264 308 234 309L166 309Z"  horiz-adv-x="497" vert-adv-y="1024"  />

      
      <glyph glyph-name="uni0433" unicode="&#x0433;" d="M550 556L183 556L183 234L183 0L92 0L29 0L29 407L29 696L55 696L74 696L145 696L195 696L304 696L382 696L447 696L493 696L526 696L550 696L550 618L550 556Z"  horiz-adv-x="600" vert-adv-y="1024"  />

      
      <glyph glyph-name="uni0434" unicode="&#x0434;" d="M123 696L492 696Q492 637 492 583.50Q492 530 491 479L492-41L337-41L337 0L162 0L162-41L12-41L12 0Q29 49 44.50 93.50Q60 138 76 181L220 560L123 560L123 696M186 56L336 56L337 481L186 56Z"  horiz-adv-x="542" vert-adv-y="1024"  />

      
      <glyph glyph-name="uni0435" unicode="&#x0435;" d="M12 696L399 696L399 640L399 560L167 560L167 426L380 426L380 310L167 310L167 135L399 135L399 0L12 0L12 696Z"  horiz-adv-x="459" vert-adv-y="1024"  />

      
      <glyph glyph-name="uni0436" unicode="&#x0436;" d="M684 690L549 367L704 1Q704-2 696 0Q689 1 689 0L549 0L437 260L437 0L279 0L279 260L166 0L27 0Q27 2 19 0Q18-1 15-1Q12-1 12 1L166 367L31 690L31 696L186 696L279 458L279 696L437 696L437 458L530 696L684 696L684 690Z"  horiz-adv-x="754" vert-adv-y="1024"  />

      
      <glyph glyph-name="uni0437" unicode="&#x0437;" d="M471 360L496 335L496 81Q496 63 491 45Q488 38 484.50 31.50Q481 25 476 20Q471 15 465 11Q459 7 451 5Q443 2 429 1Q415 0 405 0L102 0Q92 0 78 1Q64 2 56 5Q43 10 32 20Q22 30 17 45Q14 53 13 62Q12 71 12 81L12 213L168 213L168 135L341 135L341 291L175 291L175 424L341 424L341 560L168 560L168 483L12 483L12 615Q12 625 13 634Q14 643 17 651Q22 666 32 676Q43 687 56 691Q64 694 77 695Q90 696 100 696L408 696Q418 696 430.50 695Q443 694 451 691Q459 689 465 685Q471 681 476 676Q481 671 484.50 664.50Q488 658 491 651Q496 633 496 615L496 386L471 360Z"  horiz-adv-x="556" vert-adv-y="1024"  />

      
      <glyph glyph-name="uni0438" unicode="&#x0438;" d="M12 696L166 696L166 329L399 696L533 696L533 0L382 0L382 368L147 0L12 0L12 696Z"  horiz-adv-x="593" vert-adv-y="1024"  />

      
      <glyph glyph-name="uni0439" unicode="&#x0439;" d="M230 724Q230 725 229 726Q226 730 222.50 735Q219 740 215 745L197 771L247 771Q248 770 248.50 769Q249 768 250 767Q251 766 253 762L345 762Q345 762 347 766Q350 769 351 771L400 771Q399 769 397 766.50Q395 764 393 760Q389 755 383 746Q377 737 369 726Q369 725 366 722Q364 720 362 720Q359 720 359 718L240 718Q238 720 235 720Q234 720 232 722L230 724M30 696L185 696L185 329L417 696L551 696L551 0L400 0L400 368L165 0L30 0L30 696Z"  horiz-adv-x="600" vert-adv-y="1024"  />

      
      <glyph glyph-name="uni043A" unicode="&#x043A;" d="M282 0L165 275L165 0L12 0L12 696L166 696Q167 653 166.50 616Q166 579 165 547Q164 484 165 442L263 696L417 696L417 690L282 367L437 1Q437-1 434-1Q431-1 429 0Q422 1 422 0L282 0Z"  horiz-adv-x="487" vert-adv-y="1024"  />

      
      <glyph glyph-name="uni043B" unicode="&#x043B;" d="M12 0L216 560L121 560L121 696L485 696L486 696L485 0L334 0L334 487L165 0L12 0Z"  horiz-adv-x="546" vert-adv-y="1024"  />

      
      <glyph glyph-name="uni043C" unicode="&#x043C;" d="M388 696L534 696L534 0Q507 0 488 0Q469 0 454 0Q439 0 426 0Q413 0 399 0L399 348L322 96L225 96L148 345L148 0Q119 0 98.50 0Q78 0 62.50 0Q47 0 35.50 0Q24 0 12 0L12 696L147 696L272 386L388 696Z"  horiz-adv-x="594" vert-adv-y="1024"  />

      
      <glyph glyph-name="uni043D" unicode="&#x043D;" d="M165 289L165 169L165 0L102 0L12 0L12 696L75 696L165 696L165 426L256 426L378 426L378 696L441 696L534 696L532 0L469 0L378 0L378 120L378 289L287 289L165 289Z"  horiz-adv-x="594" vert-adv-y="1024"  />

      
      <glyph glyph-name="uni043E" unicode="&#x043E;" d="M491 651Q496 633 496 615L496 81Q496 63 491 45Q488 38 484.50 31.50Q481 25 476 20Q471 15 465 11Q459 7 451 5Q443 2 434 1Q425 0 415 0L93 0Q83 0 74 1Q65 2 57 5Q49 7 43 11Q37 15 32 20Q27 25 23.50 31.50Q20 38 17 45Q12 63 12 81L12 615Q12 633 17 651Q20 658 23.50 664.50Q27 671 32 676Q37 681 43 685Q49 689 57 691Q65 694 74 695Q83 696 93 696L415 696Q425 696 434 695Q443 694 451 691Q459 689 465 685Q471 681 476 676Q481 671 484.50 664.50Q488 658 491 651M340 135L340 560L167 560L167 135L181 135L200 135L322 135L340 135Z"  horiz-adv-x="556" vert-adv-y="1024"  />

      
      <glyph glyph-name="uni043F" unicode="&#x043F;" d="M544 561L543 561L543 0L391 0L391 560L175 560L175-2L20-2L20 279L20 561L20 696L543 696L544 696L544 561Z"  horiz-adv-x="600" vert-adv-y="1024"  />

      
      <glyph glyph-name="uni0440" unicode="&#x0440;" d="M167 227L167 0L12 0L12 696L365 696Q386 696 402 695Q418 694 428 683Q450 664 450 623L450 309Q450 269 428 247Q405 227 364 227L167 227M303 560L167 560L167 348L303 348L303 560Z"  horiz-adv-x="510" vert-adv-y="1024"  />

      
      <glyph glyph-name="uni0441" unicode="&#x0441;" d="M370 135L370 213L526 213L526 81Q526 71 525 62Q524 53 521 45Q516 30 506 20Q496 10 482 5Q474 2 464.50 1Q455 0 445 0L123 0Q113 0 104 1Q95 2 87 5Q79 7 73 11Q67 15 62 20Q57 25 53.50 31.50Q50 38 47 45Q42 63 42 81L42 615Q42 633 47 651Q50 658 53.50 664.50Q57 671 62 676Q67 681 73 685Q79 689 87 691Q95 694 104 695Q113 696 123 696L445 696Q455 696 464.50 695Q474 694 482 691Q496 687 506 676Q516 666 521 651Q524 643 525 634Q526 625 526 615L526 483L370 483L370 560L197 560L197 135L370 135Z"  horiz-adv-x="556" vert-adv-y="1024"  />

      
      <glyph glyph-name="uni0442" unicode="&#x0442;" d="M284 0L183 0L183 234L183 560L12 560L12 618L12 696L531 696L531 641L531 560L357 560L357 328L357 0L284 0Z"  horiz-adv-x="571" vert-adv-y="1024"  />

      
      <glyph glyph-name="uni0443" unicode="&#x0443;" d="M347 234L328 0L154 0L193 232L12 696L188 696L270 444L364 696L553 696L347 234Z"  horiz-adv-x="603" vert-adv-y="1024"  />

      
      <glyph glyph-name="uni0444" unicode="&#x0444;" d="M491 651Q496 633 496 615L496 81Q496 63 491 45Q488 38 484.50 31.50Q481 25 476 20Q471 15 465 11Q459 7 451 5Q443 2 434 1Q425 0 415 0L306 0L306-66L223-66L223 0L93 0Q83 0 74 1Q65 2 57 5Q49 7 43 11Q37 15 32 20Q27 25 23.50 31.50Q20 38 17 45Q12 63 12 81L12 615Q12 633 17 651Q20 658 23.50 664.50Q27 671 32 676Q37 681 43 685Q49 689 57 691Q65 694 74 695Q83 696 93 696L215 696L215 762L298 762L298 696L415 696Q425 696 434 695Q443 694 451 691Q459 689 465 685Q471 681 476 676Q481 671 484.50 664.50Q488 658 491 651M167 560L167 135L340 135L340 560L167 560Z"  horiz-adv-x="556" vert-adv-y="1024"  />

      
      <glyph glyph-name="uni0445" unicode="&#x0445;" d="M487 0L336 0L253 266L158 0L12 0L12 6L137 360L29 690L29 696L180 696L250 426L250 425L332 696L469 696L469 690L362 360L487 6L487 0Z"  horiz-adv-x="527" vert-adv-y="1024"  />

      
      <glyph glyph-name="uni0446" unicode="&#x0446;" d="M14 696L168 696L168 132L380 132L380 696L534 696L534 111L611 111L611-43Q611-68 599-80Q575-101 533-101Q529-101 529-52Q529-3 528 0L376 0Q330 1 282.50 1Q235 1 185 1Q135 1 92 1Q49 1 12 0L14 696Z"  horiz-adv-x="671" vert-adv-y="1024"  />

      
      <glyph glyph-name="uni0447" unicode="&#x0447;" d="M14 389Q14 413 13.50 436.50Q13 460 12.50 480Q12 500 12 514.50Q12 529 12 534L12 615Q12 635 13 650.50Q14 666 24 676Q47 696 87 696L167 696Q167 689 167 682.50Q167 676 166 669L166 347L302 347L302 696L456 696L456 0L302 0L302 223L88 223Q55 222 34.50 240Q14 258 14 283L14 389Z"  horiz-adv-x="516" vert-adv-y="1024"  />

      
      <glyph glyph-name="uni0448" unicode="&#x0448;" d="M558 696L559 0L317 0L13 0L13 62L13 292L13 696L78 696L169 696L169 136L194 136L228 136L228 217L228 331L344 331Q344 314 344 294Q344 274 343 250L343 136L368 136L403 136L403 371L403 696L467 696L558 696Z"  horiz-adv-x="609" vert-adv-y="1024"  />

      
      <glyph glyph-name="uni0449" unicode="&#x0449;" d="M558 117L592 117L636 117L636 67L636-5L636-20L636-39Q636-63 624-75Q603-96 558-96L549-96L539-96L539 0L317 0L13 0L13 62L13 292L13 696L78 696L169 696L169 136L194 136L228 136L228 217L228 331L276 331L344 331Q344 314 344 294Q344 274 343 250L343 136L368 136L403 136L403 371L403 696L467 696L558 696L558 274L558 240L558 195L558 186L558 175L558 147L558 117Z"  horiz-adv-x="686" vert-adv-y="1024"  />

      
      <glyph glyph-name="uni044A" unicode="&#x044A;" d="M152 623L152 560L12 560L12 696L152 696L152 653L152 623M564 453Q585 432 585 392L585 82Q585 61 580 46Q575 31 565 20Q542 0 502 0L356 0L152 0L152 259L152 560L153 560L153 696L306 696L306 473L388 473L501 473Q544 473 564 453M421 349L372 349L306 349L306 309L306 261L306 137L355 137L421 137L421 226L421 349Z"  horiz-adv-x="645" vert-adv-y="1024"  />

      
      <glyph glyph-name="uni044B" unicode="&#x044B;" d="M424 453Q445 432 445 392L445 82Q445 61 440 46Q435 31 425 20Q402 0 362 0L216 0L12 0L12 259L12 623L12 653L12 696L166 696L166 473L248 473L361 473Q404 473 424 453M670 696L511 696L511 0L670 0L670 696M281 349L232 349L166 349L166 309L166 261L166 137L215 137L281 137L281 226L281 349Z"  horiz-adv-x="730" vert-adv-y="1024"  />

      
      <glyph glyph-name="uni044C" unicode="&#x044C;" d="M424 453Q445 432 445 392L445 82Q445 61 440 46Q435 31 425 20Q402 0 362 0L12 0L12 696L166 696L166 473L361 473Q404 473 424 453M281 137L281 349L166 349L166 137L281 137Z"  horiz-adv-x="505" vert-adv-y="1024"  />

      
      <glyph glyph-name="uni044D" unicode="&#x044D;" d="M521 651Q526 633 526 615L526 540L526 475L526 420L526 371L526 339L526 310L526 286L526 266L526 216L526 189L526 181L526 169L526 153L526 135L526 124L526 111L526 97L526 81Q526 63 521 45Q518 38 514.50 31.50Q511 25 506 20Q501 15 495 11Q489 7 481 5Q473 2 464 1Q455 0 445 0L428 0L422 0L373 0L338 0L274 0L229 0L167 0L123 0Q113 0 103.50 1Q94 2 86 5Q73 10 62 20Q52 30 47 45Q44 53 43 62Q42 71 42 81L42 151L42 213L83 213L113 213L166 213L198 213L198 170L198 135L216 135L229 135L358 135L371 135L371 283L117 283L117 416L371 416L371 560L198 560L198 521L198 483L157 483L127 483L75 483L42 483L42 498L42 507L42 528L42 562L42 573L42 585L42 599L42 615Q42 625 43 634Q44 643 47 651Q52 666 62 676Q73 687 86 691Q94 694 103.50 695Q113 696 123 696L138 696L151 696L162 696L172 696L197 696L206 696L212 696L229 696L292 696L338 696L381 696L411 696L431 696L445 696Q455 696 464 695Q473 694 481 691Q489 689 495 685Q501 681 506 676Q511 671 514.50 664.50Q518 658 521 651Z"  horiz-adv-x="600" vert-adv-y="1024"  />

      
      <glyph glyph-name="uni044E" unicode="&#x044E;" d="M692 677Q701 665 705 652Q708 644 709 635Q710 626 710 616L710 599L710 81Q710 71 709 62Q708 53 705 46Q703 38 699.50 31.50Q696 25 692 20Q681 9 666 5Q655 0 631 0L588 0L527 0L483 0L420 0L386 0L338 0L332 0L316 0Q306 0 297 1Q288 2 280 5Q265 10 255 20Q251 25 247 31.50Q243 38 241 46Q238 53 237 62Q236 71 236 81L236 166L236 284L206 284L165 284L165 166L165 0L102 0L12 0L12 696L44 696L165 696L165 577L165 420L196 420L236 420L236 449L236 461L236 477L236 526L236 544L236 564L236 588L236 616Q236 626 237 635Q238 644 241 652Q243 659 247 665.50Q251 672 255 677Q260 682 266.50 685.50Q273 689 280 691Q288 694 297 695Q306 696 316 696L329 696L349 696L378 696L420 696L465 696L527 696L544 696L550 696L584 696L593 696L604 696L617 696L631 696Q655 696 666 691Q683 687 692 677M568 131L568 307L568 560L376 560L376 515L376 457L376 321L376 261L376 131L395 131L420 131L465 131L527 131L545 131L568 131Z"  horiz-adv-x="760" vert-adv-y="1024"  />

      
      <glyph glyph-name="uni044F" unicode="&#x044F;" d="M455 696L448 0L295 0L295 259L178 0L12 0L12 7L145 298L116 298Q73 298 54 317Q44 328 39 343Q34 358 34 379L34 623Q34 665 57 684Q68 694 83 695Q98 696 116 696L455 696M177 387L312 387L312 560L177 560L177 387Z"  horiz-adv-x="515" vert-adv-y="1024"  />

      
      <glyph glyph-name="uni0451" unicode="&#x0451;" d="M110 752Q133 752 148.50 767.50Q164 783 164 806Q164 829 148.50 844.50Q133 860 110 860Q87 860 71.50 844.50Q56 829 56 806Q56 783 71.50 767.50Q87 752 110 752M287 752Q310 752 325.50 767.50Q341 783 341 806Q341 829 325.50 844.50Q310 860 287 860Q264 860 248.50 844.50Q233 829 233 806Q233 783 248.50 767.50Q264 752 287 752M12 696L399 696L399 640L399 560L167 560L167 426L380 426L380 310L167 310L167 135L399 135L399 0L12 0L12 696Z"  horiz-adv-x="459" vert-adv-y="1024"  />

      
      <glyph glyph-name="uni1E80" unicode="&#x1E80;" d="M156 918L316 918L409 774L242 774L156 918M666 696L595 0L449 0L333 310L208 0L73 0L12 696L177 696L209 351L286 600L383 600L460 348L504 696L666 696Z"  horiz-adv-x="726" vert-adv-y="1024"  />

      
      <glyph glyph-name="uni1E81" unicode="&#x1E81;" d="M156 918L316 918L409 774L242 774L156 918M666 696L595 0L449 0L333 310L208 0L73 0L12 696L177 696L209 351L286 600L383 600L460 348L504 696L666 696Z"  horiz-adv-x="600" vert-adv-y="1024"  />

      
      <glyph glyph-name="uni1E82" unicode="&#x1E82;" d="M244 774L337 918L497 918L411 774L244 774M666 696L595 0L449 0L333 310L208 0L73 0L12 696L177 696L209 351L286 600L383 600L460 348L504 696L666 696Z"  horiz-adv-x="726" vert-adv-y="1024"  />

      
      <glyph glyph-name="uni1E83" unicode="&#x1E83;" d="M244 774L337 918L497 918L411 774L244 774M666 696L595 0L449 0L333 310L208 0L73 0L12 696L177 696L209 351L286 600L383 600L460 348L504 696L666 696Z"  horiz-adv-x="726" vert-adv-y="1024"  />

      
      <glyph glyph-name="uni1E84" unicode="&#x1E84;" d="M236 752Q259 752 274.50 767.50Q290 783 290 806Q290 829 274.50 844.50Q259 860 236 860Q213 860 197.50 844.50Q182 829 182 806Q182 783 197.50 767.50Q213 752 236 752M413 752Q436 752 451.50 767.50Q467 783 467 806Q467 829 451.50 844.50Q436 860 413 860Q390 860 374.50 844.50Q359 829 359 806Q359 783 374.50 767.50Q390 752 413 752M666 696L595 0L449 0L333 310L208 0L73 0L12 696L177 696L209 351L286 600L383 600L460 348L504 696L666 696Z"  horiz-adv-x="726" vert-adv-y="1024"  />

      
      <glyph glyph-name="uni1E85" unicode="&#x1E85;" d="M236 752Q259 752 274.50 767.50Q290 783 290 806Q290 829 274.50 844.50Q259 860 236 860Q213 860 197.50 844.50Q182 829 182 806Q182 783 197.50 767.50Q213 752 236 752M413 752Q436 752 451.50 767.50Q467 783 467 806Q467 829 451.50 844.50Q436 860 413 860Q390 860 374.50 844.50Q359 829 359 806Q359 783 374.50 767.50Q390 752 413 752M666 696L595 0L449 0L333 310L208 0L73 0L12 696L177 696L209 351L286 600L383 600L460 348L504 696L666 696Z"  horiz-adv-x="726" vert-adv-y="1024"  />

      
      <glyph glyph-name="uni1EF2" unicode="&#x1EF2;" d="M75 918L235 918L328 774L161 774L75 918M335 234L316 0L142 0L181 232L0 696L176 696L258 444L352 696L541 696L335 234Z"  horiz-adv-x="600" vert-adv-y="1024"  />

      
      <glyph glyph-name="uni1EF3" unicode="&#x1EF3;" d="M75 918L235 918L328 774L161 774L75 918M335 234L316 0L142 0L181 232L0 696L176 696L258 444L352 696L541 696L335 234Z"  horiz-adv-x="600" vert-adv-y="1024"  />

      
      <glyph glyph-name="uni2013" unicode="&#x2013;" d="M7 272L7 395L256 395L256 272L7 272Z"  horiz-adv-x="306" vert-adv-y="1024"  />

      
      <glyph glyph-name="uni2014" unicode="&#x2014;" d="M7 272L7 395L312 395L312 272L7 272Z"  horiz-adv-x="362" vert-adv-y="1024"  />

      
      <glyph glyph-name="uni2018" unicode="&#x2018;" d="M170 499L13 499L12 696L91 696L91 656L170 637L170 499Z"  horiz-adv-x="230" vert-adv-y="1024"  />

      
      <glyph glyph-name="uni2019" unicode="&#x2019;" d="M91 499L91 539L12 558L12 696L169 696L170 499L91 499Z"  horiz-adv-x="230" vert-adv-y="1024"  />

      
      <glyph glyph-name="uni201A" unicode="&#x201A;" d="M12 0L12 138L169 138L170-59L91-59L91-19L12 0Z"  horiz-adv-x="600" vert-adv-y="1024"  />

      
      <glyph glyph-name="uni201C" unicode="&#x201C;" d="M153 637L153 499L-4 499L-5 696L74 696L74 656L153 637M363 499L206 499L205 696L284 696L284 656L363 637L363 499Z"  horiz-adv-x="429" vert-adv-y="1024"  />

      
      <glyph glyph-name="uni201D" unicode="&#x201D;" d="M170 499L91 499L91 539L12 558L12 696L169 696L170 499M301 499L301 539L222 558L222 696L379 696L380 499L301 499Z"  horiz-adv-x="440" vert-adv-y="1024"  />

      
      <glyph glyph-name="uni201E" unicode="&#x201E;" d="M91-59L91-19L12 0L12 138L169 138L170-59L91-59Z"  horiz-adv-x="600" vert-adv-y="1024"  />

      

  </font>
</defs>
</svg>
